<svg width="102" height="102" viewBox="0 0 102 102" fill="none" xmlns="http://www.w3.org/2000/svg">
<path d="M44.625 73.3125H70.125V79.6875H44.625V73.3125ZM31.875 73.3125H38.25V79.6875H31.875V73.3125ZM44.625 57.375H70.125V63.75H44.625V57.375ZM31.875 57.375H38.25V63.75H31.875V57.375ZM44.625 41.4375H70.125V47.8125H44.625V41.4375ZM31.875 41.4375H38.25V47.8125H31.875V41.4375Z" fill="#FFAE00"/>
<path d="M79.6875 15.9375H70.125V12.75C70.125 11.0592 69.4534 9.43774 68.2578 8.24219C67.0623 7.04665 65.4408 6.375 63.75 6.375H38.25C36.5592 6.375 34.9377 7.04665 33.7422 8.24219C32.5467 9.43774 31.875 11.0592 31.875 12.75V15.9375H22.3125C20.6217 15.9375 19.0002 16.6091 17.8047 17.8047C16.6091 19.0002 15.9375 20.6217 15.9375 22.3125V89.25C15.9375 90.9408 16.6091 92.5623 17.8047 93.7578C19.0002 94.9533 20.6217 95.625 22.3125 95.625H79.6875C81.3783 95.625 82.9998 94.9533 84.1953 93.7578C85.3908 92.5623 86.0625 90.9408 86.0625 89.25V22.3125C86.0625 20.6217 85.3908 19.0002 84.1953 17.8047C82.9998 16.6091 81.3783 15.9375 79.6875 15.9375ZM38.25 12.75H63.75V25.5H38.25V12.75ZM79.6875 89.25H22.3125V22.3125H31.875V31.875H70.125V22.3125H79.6875V89.25Z" fill="#FFAE00"/>
</svg>
