<svg width="52" height="52" viewBox="0 0 52 52" fill="none" xmlns="http://www.w3.org/2000/svg">
<g clip-path="url(#clip0_96_707)">
<path d="M26 0C11.7 0 0 10.4 0 23.1111C0 29.4667 2.86 35.2444 7.28 39C7.28 40.7333 6.24 45.3556 0 52C6.24 51.7111 11.96 49.1111 16.9 44.7778C19.76 45.6444 22.88 46.2222 26 46.2222C40.3 46.2222 52 35.8222 52 23.1111C52 10.4 40.3 0 26 0ZM26 42.7143C14.56 42.7143 3.71429 32.6444 3.71429 23.1111C3.71429 13.5778 14.56 3.71429 26 3.71429C37.44 3.71429 48.2857 13.2889 48.2857 22.8222C48.2857 32.3556 37.44 42.7143 26 42.7143ZM26.52 10.1111C24.18 10.1111 22.36 10.6889 21.06 11.5556C19.5 12.7111 18.72 14.4444 18.98 16.4667H24.18C24.18 15.6 24.44 15.0222 24.96 14.7333C25.48 14.4444 26 14.1556 26.78 14.1556C27.56 14.1556 28.34 14.4444 28.86 15.0222C29.38 15.6 29.64 16.1778 29.64 17.0444C29.64 17.9111 29.38 18.4889 29.12 19.0667C28.6 19.6444 28.08 20.2222 27.56 20.5111C26.26 21.3778 25.22 22.2444 24.7 22.8222C23.66 23.6889 23.4 24.5556 23.4 26H28.6C28.6 25.1333 28.86 24.5556 28.86 23.9778C29.12 23.4 29.64 23.1111 30.16 22.5333C31.46 21.9556 32.24 21.0889 33.02 19.9333C33.8 18.7778 34.06 17.6222 34.06 16.4667C34.06 14.4444 33.28 12.7111 31.98 11.5556C30.94 10.6889 28.86 10.1111 26.52 10.1111ZM23.4 28.8889V34.6667H28.6V28.8889H23.4Z" fill="#3C8AFF"/>
</g>
<defs>
<clipPath id="clip0_96_707">
<rect width="52" height="52" fill="white"/>
</clipPath>
</defs>
</svg>
