<svg width="36" height="36" viewBox="0 0 36 36" fill="none" xmlns="http://www.w3.org/2000/svg">
<path d="M13.3594 19.4625H22.6406M13.3594 25.3125H18M5.625 6.3V29.7C5.625 30.4758 5.95095 31.2197 6.53114 31.7683C7.11133 32.3168 7.89824 32.625 8.71875 32.625H27.2812C28.1018 32.625 28.8887 32.3168 29.4689 31.7683C30.0491 31.2197 30.375 30.4758 30.375 29.7V12.6502C30.3749 12.2605 30.2925 11.8748 30.1326 11.5156C29.9727 11.1565 29.7385 10.8312 29.4438 10.5588L22.5757 4.20862C21.9977 3.67431 21.2215 3.3751 20.4131 3.375H8.71875C7.89824 3.375 7.11133 3.68317 6.53114 4.23171C5.95095 4.78026 5.625 5.52424 5.625 6.3Z" stroke="#BD4243" stroke-width="2" stroke-linecap="round" stroke-linejoin="round"/>
<path d="M21.094 3.375V9.225C21.094 10.0008 21.4199 10.7447 22.0001 11.2933C22.5803 11.8418 23.3672 12.15 24.1877 12.15H30.3752" stroke="#BD4243" stroke-width="2" stroke-linejoin="round"/>
</svg>
