<svg width="52" height="52" viewBox="0 0 52 52" fill="none" xmlns="http://www.w3.org/2000/svg">
<g clip-path="url(#clip0_96_658)">
<path d="M15.5905 0H36.4095C36.9767 0 37.4652 -1.21764e-07 37.9064 0.0505142C39.4875 0.236194 40.9562 0.918543 42.0757 1.98753C43.1952 3.05653 43.9002 4.44986 44.0771 5.94286H46.6172C47.2853 5.93691 48.7508 5.92503 49.961 6.68869C51.5273 7.67223 52 9.36297 52 11.1429C52 19.243 47.4208 24.651 41.5748 27.6551C38.313 33.2533 32.2873 37.1429 26 37.1429C21.2128 37.1429 16.6715 34.7003 13.4034 31.3218C12.3175 30.2048 11.3643 28.9792 10.5607 27.667C4.71782 24.6777 0 19.2757 0 11.1429C0 9.36 0.472727 7.67223 2.03588 6.68869C3.24921 5.92503 4.71467 5.93691 5.38279 5.94286H7.92291L7.93236 5.85966C8.12722 4.38298 8.839 3.00979 9.95499 1.95757C11.071 0.905343 12.5274 0.234232 14.0936 0.0505142C14.5348 -1.21764e-07 15.0233 0 15.5905 0ZM12.6061 8.17143V8.18034L12.5745 18.5714V18.5744C12.5745 20.7168 13.2238 22.9067 14.3489 24.9125L14.393 24.9867C15.0705 26.1813 15.9183 27.3045 16.8984 28.3147C19.552 31.0603 22.9115 32.6857 26.0032 32.6857C30.4846 32.6857 35.2087 29.6311 37.6638 25.1264C38.779 23.1012 39.3626 20.8533 39.3656 18.5714L39.3593 18.5655L39.3971 7.38994C39.3971 6.67086 39.3908 6.51337 39.3782 6.40937C39.3129 5.9178 39.0757 5.46075 38.7042 5.11044C38.3327 4.76013 37.8479 4.53653 37.3265 4.47497C36.9803 4.45554 36.6333 4.44959 36.2865 4.45714H15.7166C14.9508 4.45714 14.7869 4.46011 14.6766 4.47497C14.1552 4.53653 13.6705 4.76013 13.2989 5.11044C12.9274 5.46075 12.6903 5.9178 12.625 6.40937C12.6044 6.73584 12.5981 7.06298 12.6061 7.38994V8.17143ZM44.1149 10.4L44.0865 18.5714V18.5744M44.0141 20.176C46.0247 17.8939 47.2759 14.9166 47.2759 11.1429C47.2759 10.7922 47.2444 10.5605 47.216 10.4149C46.9736 10.4011 46.7308 10.3961 46.488 10.4H44.1149M7.9103 20.0037C7.86276 19.5276 7.83962 19.0496 7.84097 18.5714V18.5655L7.86933 10.4H5.51515C5.17164 10.4 4.95418 10.4 4.78715 10.4149C4.74286 10.6552 4.72281 10.899 4.72727 11.1429C4.72727 14.8185 5.95006 17.7394 7.9103 20.0037ZM26 38.6286C26.6269 38.6286 27.2281 38.8634 27.6713 39.2813C28.1146 39.6992 28.3636 40.2661 28.3636 40.8571V47.5429H38.6061C39.2329 47.5429 39.8341 47.7777 40.2774 48.1956C40.7207 48.6135 40.9697 49.1804 40.9697 49.7714C40.9697 50.3625 40.7207 50.9293 40.2774 51.3473C39.8341 51.7652 39.2329 52 38.6061 52H13.3939C12.7671 52 12.1659 51.7652 11.7226 51.3473C11.2793 50.9293 11.0303 50.3625 11.0303 49.7714C11.0303 49.1804 11.2793 48.6135 11.7226 48.1956C12.1659 47.7777 12.7671 47.5429 13.3939 47.5429H23.6364V40.8571C23.6364 40.2661 23.8854 39.6992 24.3287 39.2813C24.7719 38.8634 25.3731 38.6286 26 38.6286Z" fill="#F49907"/>
<path d="M25.5016 14.2022C25.5432 14.1045 25.6126 14.0212 25.7012 13.9626C25.7898 13.904 25.8937 13.8728 25.9999 13.8728C26.1061 13.8728 26.21 13.904 26.2986 13.9626C26.3872 14.0212 26.4566 14.1045 26.4982 14.2022L27.5924 16.8282C27.6306 16.9198 27.6932 16.9992 27.7734 17.0577C27.8537 17.1161 27.9485 17.1514 28.0474 17.1597L30.8836 17.3872C30.9902 17.3956 31.092 17.4355 31.1761 17.5017C31.2601 17.568 31.3227 17.6576 31.3558 17.7594C31.389 17.8611 31.3912 17.9704 31.3623 18.0735C31.3334 18.1765 31.2746 18.2687 31.1934 18.3383L29.0332 20.1887C28.9577 20.2536 28.9016 20.3382 28.871 20.433C28.8404 20.5278 28.8366 20.6292 28.8599 20.726L29.5186 23.4907C29.544 23.595 29.5378 23.7045 29.5008 23.8053C29.4638 23.9062 29.3977 23.9937 29.3109 24.0569C29.224 24.12 29.1204 24.1559 29.0131 24.1601C28.9058 24.1642 28.7997 24.1363 28.7082 24.08L26.2816 22.598C26.1967 22.5463 26.0992 22.519 25.9999 22.519C25.9005 22.519 25.8031 22.5463 25.7182 22.598L23.2916 24.08C23.2001 24.1363 23.094 24.1642 22.9867 24.1601C22.8794 24.1559 22.7758 24.12 22.6889 24.0569C22.6021 23.9937 22.536 23.9062 22.499 23.8053C22.462 23.7045 22.4558 23.595 22.4812 23.4907L23.1421 20.726C23.1654 20.6292 23.1615 20.5278 23.1309 20.433C23.1004 20.3382 23.0442 20.2536 22.9687 20.1887L20.8064 18.3383C20.7244 18.2688 20.665 18.1765 20.6356 18.0731C20.6062 17.9697 20.6083 17.86 20.6415 17.7577C20.6747 17.6555 20.7376 17.5655 20.8221 17.4991C20.9067 17.4328 21.009 17.393 21.1162 17.385L23.9502 17.1597C24.0495 17.1518 24.1448 17.1167 24.2254 17.0582C24.3061 16.9997 24.369 16.9201 24.4074 16.8282L25.5016 14.2022Z" fill="#F49907"/>
</g>
<defs>
<clipPath id="clip0_96_658">
<rect width="52" height="52" fill="white"/>
</clipPath>
</defs>
</svg>
