<svg width="32" height="32" viewBox="0 0 32 32" fill="none" xmlns="http://www.w3.org/2000/svg">
<path d="M29.2265 8.82667C29.0912 8.50087 28.8323 8.24197 28.5065 8.10667C28.3462 8.03835 28.1741 8.00211 27.9999 8H21.3332C20.9796 8 20.6405 8.14048 20.3904 8.39052C20.1404 8.64057 19.9999 8.97971 19.9999 9.33333C19.9999 9.68696 20.1404 10.0261 20.3904 10.2761C20.6405 10.5262 20.9796 10.6667 21.3332 10.6667H24.7865L17.3332 18.12L12.9465 13.72C12.8226 13.595 12.6751 13.4958 12.5126 13.4281C12.3502 13.3605 12.1759 13.3256 11.9999 13.3256C11.8239 13.3256 11.6496 13.3605 11.4871 13.4281C11.3246 13.4958 11.1772 13.595 11.0532 13.72L3.05321 21.72C2.92824 21.844 2.82905 21.9914 2.76136 22.1539C2.69366 22.3164 2.65881 22.4907 2.65881 22.6667C2.65881 22.8427 2.69366 23.017 2.76136 23.1794C2.82905 23.3419 2.92824 23.4894 3.05321 23.6133C3.17716 23.7383 3.32463 23.8375 3.48711 23.9052C3.64959 23.9729 3.82386 24.0077 3.99988 24.0077C4.17589 24.0077 4.35017 23.9729 4.51265 23.9052C4.67513 23.8375 4.82259 23.7383 4.94654 23.6133L11.9999 16.5467L16.3865 20.9467C16.5105 21.0716 16.658 21.1708 16.8204 21.2385C16.9829 21.3062 17.1572 21.3411 17.3332 21.3411C17.5092 21.3411 17.6835 21.3062 17.846 21.2385C18.0085 21.1708 18.1559 21.0716 18.2799 20.9467L26.6665 12.5467V16C26.6665 16.3536 26.807 16.6928 27.0571 16.9428C27.3071 17.1929 27.6463 17.3333 27.9999 17.3333C28.3535 17.3333 28.6926 17.1929 28.9427 16.9428C29.1927 16.6928 29.3332 16.3536 29.3332 16V9.33333C29.3311 9.1591 29.2949 8.98696 29.2265 8.82667Z" fill="black"/>
</svg>
