<svg width="20" height="20" viewBox="0 0 20 20" fill="none" xmlns="http://www.w3.org/2000/svg">
<g clip-path="url(#clip0_81_439)">
<path d="M0 15.836V20.0027H4.16667L16.4556 7.71383L12.2889 3.54716L0 15.836ZM19.6778 4.4916C19.7808 4.38881 19.8625 4.26671 19.9183 4.1323C19.974 3.99788 20.0027 3.85379 20.0027 3.70827C20.0027 3.56275 19.974 3.41866 19.9183 3.28424C19.8625 3.14983 19.7808 3.02773 19.6778 2.92494L17.0778 0.324938C16.975 0.221934 16.8529 0.140214 16.7185 0.0844571C16.5841 0.0287 16.44 0 16.2944 0C16.1489 0 16.0048 0.0287 15.8704 0.0844571C15.736 0.140214 15.6139 0.221934 15.5111 0.324938L13.4778 2.35827L17.6444 6.52494L19.6778 4.4916Z" fill="black"/>
</g>
<defs>
<clipPath id="clip0_81_439">
<rect width="20" height="20" fill="white"/>
</clipPath>
</defs>
</svg>
