<svg width="32" height="16" viewBox="0 0 32 16" fill="none" xmlns="http://www.w3.org/2000/svg">
<path d="M5.33333 16H26.6667C27.4 16 28 15.4 28 14.6667C28 13.9333 27.4 13.3333 26.6667 13.3333H5.33333C4.6 13.3333 4 13.9333 4 14.6667C4 15.4 4.6 16 5.33333 16ZM5.33333 9.33333H26.6667C27.4 9.33333 28 8.73333 28 8C28 7.26667 27.4 6.66667 26.6667 6.66667H5.33333C4.6 6.66667 4 7.26667 4 8C4 8.73333 4.6 9.33333 5.33333 9.33333ZM4 1.33333C4 2.06667 4.6 2.66667 5.33333 2.66667H26.6667C27.4 2.66667 28 2.06667 28 1.33333C28 0.6 27.4 0 26.6667 0H5.33333C4.6 0 4 0.6 4 1.33333Z" fill="black"/>
</svg>
