<svg width="18" height="18" viewBox="0 0 18 18" fill="none" xmlns="http://www.w3.org/2000/svg">
<path fill-rule="evenodd" clip-rule="evenodd" d="M3.76441 1.16452L15.4484 8.05468C15.6169 8.15395 15.7562 8.29296 15.8527 8.45845C15.9493 8.62394 16 8.81039 16 9C16 9.18961 15.9493 9.37606 15.8527 9.54155C15.7562 9.70704 15.6169 9.84605 15.4484 9.94532L3.76441 16.8355C3.58895 16.9389 3.38788 16.9956 3.18193 16.9998C2.97597 17.0039 2.7726 16.9553 2.5928 16.8589C2.41299 16.7626 2.26326 16.622 2.15905 16.4517C2.05485 16.2814 1.99994 16.0876 2 15.8902V2.10984C1.99994 1.91242 2.05485 1.71856 2.15905 1.54827C2.26326 1.37797 2.41299 1.2374 2.5928 1.14107C2.7726 1.04473 2.97597 0.996119 3.18193 1.00024C3.38788 1.00437 3.58895 1.06108 3.76441 1.16452ZM3.3893 2.50705V15.4941L14.3995 9L3.3893 2.50705Z" fill="black" fill-opacity="0.46"/>
</svg>
