<svg width="20" height="20" viewBox="0 0 20 20" fill="none" xmlns="http://www.w3.org/2000/svg">
<path fill-rule="evenodd" clip-rule="evenodd" d="M4.18262 1.29389L17.1648 8.94962C17.3521 9.05992 17.5068 9.21438 17.6141 9.39826C17.7214 9.58213 17.7777 9.7893 17.7777 9.99997C17.7777 10.2107 17.7214 10.4178 17.6141 10.6017C17.5068 10.7856 17.3521 10.94 17.1648 11.0503L4.18262 18.7061C3.98767 18.821 3.76425 18.884 3.53542 18.8886C3.30658 18.8932 3.08061 18.8392 2.88083 18.7321C2.68104 18.6251 2.51468 18.4689 2.39889 18.2797C2.28311 18.0905 2.2221 17.8751 2.22217 17.6557V2.34424C2.2221 2.12489 2.28311 1.90949 2.39889 1.72027C2.51468 1.53105 2.68104 1.37487 2.88083 1.26783C3.08061 1.16079 3.30658 1.10677 3.53542 1.11135C3.76425 1.11593 3.98767 1.17895 4.18262 1.29389Z" fill="black"/>
</svg>
