<svg width="32" height="32" viewBox="0 0 32 32" fill="none" xmlns="http://www.w3.org/2000/svg">
<path d="M16 2C8.3 2 2 7.6 2 14.4444C2 17.8667 3.54 20.9778 5.92 23C5.92 23.9333 5.36 26.4222 2 30C5.36 29.8444 8.44 28.4444 11.1 26.1111C12.64 26.5778 14.32 26.8889 16 26.8889C23.7 26.8889 30 21.2889 30 14.4444C30 7.6 23.7 2 16 2ZM16 25C9.84 25 4 19.5778 4 14.4444C4 9.31111 9.84 4 16 4C22.16 4 28 9.15555 28 14.2889C28 19.4222 22.16 25 16 25ZM16.28 7.44444C15.02 7.44444 14.04 7.75556 13.34 8.22222C12.5 8.84444 12.08 9.77778 12.22 10.8667H15.02C15.02 10.4 15.16 10.0889 15.44 9.93333C15.72 9.77778 16 9.62222 16.42 9.62222C16.84 9.62222 17.26 9.77778 17.54 10.0889C17.82 10.4 17.96 10.7111 17.96 11.1778C17.96 11.6444 17.82 11.9556 17.68 12.2667C17.4 12.5778 17.12 12.8889 16.84 13.0444C16.14 13.5111 15.58 13.9778 15.3 14.2889C14.74 14.7556 14.6 15.2222 14.6 16H17.4C17.4 15.5333 17.54 15.2222 17.54 14.9111C17.68 14.6 17.96 14.4444 18.24 14.1333C18.94 13.8222 19.36 13.3556 19.78 12.7333C20.2 12.1111 20.34 11.4889 20.34 10.8667C20.34 9.77778 19.92 8.84444 19.22 8.22222C18.66 7.75556 17.54 7.44444 16.28 7.44444ZM14.6 17.5556V20.6667H17.4V17.5556H14.6Z" fill="#3C8AFF"/>
</svg>
