<svg width="32" height="32" viewBox="0 0 32 32" fill="none" xmlns="http://www.w3.org/2000/svg">
<g clip-path="url(#clip0_78_378)">
<path d="M6.10051 25.8995C4.14257 23.9416 2.8092 21.447 2.26901 18.7313C1.72881 16.0156 2.00606 13.2006 3.06569 10.6425C4.12531 8.08431 5.91973 5.89781 8.22202 4.35947C10.5243 2.82113 13.2311 2.00005 16 2.00005C18.7689 2.00005 21.4757 2.82113 23.778 4.35947C26.0803 5.89781 27.8747 8.08431 28.9343 10.6425C29.9939 13.2006 30.2712 16.0156 29.731 18.7313C29.1908 21.447 27.8574 23.9416 25.8995 25.8995C23.274 28.525 19.713 30 16 30C12.287 30 8.72602 28.525 6.10051 25.8995ZM24.2496 7.75047C22.618 6.11886 20.5392 5.00771 18.2761 4.55755C16.0129 4.10739 13.6672 4.33843 11.5354 5.22145C9.40356 6.10448 7.58147 7.59982 6.29952 9.51839C5.01757 11.437 4.33334 13.6926 4.33334 16C4.33334 18.3075 5.01757 20.5631 6.29952 22.4817C7.58147 24.4003 9.40356 25.8956 11.5354 26.7786C13.6672 27.6617 16.0129 27.8927 18.2761 27.4425C20.5392 26.9924 22.618 25.8812 24.2496 24.2496C26.4375 22.0617 27.6667 19.0942 27.6667 16C27.6667 12.9059 26.4375 9.93839 24.2496 7.75047Z" fill="#28AB3C"/>
<path d="M20.608 9.74208C20.8268 9.52329 21.1236 9.40037 21.433 9.40037C22.0773 9.40037 22.5997 9.92271 22.5997 10.567C22.5997 10.8765 22.4767 11.1732 22.258 11.392L10.567 23.0829C10.3482 23.3017 10.0515 23.4247 9.74205 23.4247C9.09772 23.4247 8.57538 22.9023 8.57538 22.258C8.57538 21.9486 8.6983 21.6518 8.91709 21.433L20.608 9.74208Z" fill="#28AB3C"/>
</g>
<defs>
<clipPath id="clip0_78_378">
<rect width="32" height="32" fill="white"/>
</clipPath>
</defs>
</svg>
