<svg width="32" height="32" viewBox="0 0 32 32" fill="none" xmlns="http://www.w3.org/2000/svg">
<path d="M22.2222 27H28.4444C28.857 27 29.2527 26.8344 29.5444 26.5397C29.8361 26.245 30 25.8453 30 25.4286V23.8571C30 22.6068 29.5083 21.4077 28.6332 20.5236C27.758 19.6395 26.571 19.1429 25.3333 19.1429H22.2222M18.744 12.8571C19.3741 13.5688 20.2032 14.0704 21.1217 14.2956C22.0401 14.5208 23.0046 14.4589 23.8875 14.1182C24.7704 13.7776 25.5301 13.1741 26.0661 12.3877C26.602 11.6013 26.889 10.669 26.889 9.71429C26.889 8.75953 26.602 7.82727 26.0661 7.04087C25.5301 6.25448 24.7704 5.65101 23.8875 5.31033C23.0046 4.96965 22.0401 4.90781 21.1217 5.133C20.2032 5.35819 19.3741 5.85979 18.744 6.57143M2 25.4286V23.8571C2 22.6068 2.49167 21.4077 3.36684 20.5236C4.242 19.6395 5.42899 19.1429 6.66667 19.1429H12.8889C14.1266 19.1429 15.3136 19.6395 16.1887 20.5236C17.0639 21.4077 17.5556 22.6068 17.5556 23.8571V25.4286C17.5556 25.8453 17.3917 26.245 17.0999 26.5397C16.8082 26.8344 16.4126 27 16 27H3.55556C3.143 27 2.74733 26.8344 2.45561 26.5397C2.16389 26.245 2 25.8453 2 25.4286ZM14.4444 9.71429C14.4444 10.9646 13.9528 12.1637 13.0776 13.0478C12.2024 13.9319 11.0155 14.4286 9.77778 14.4286C8.5401 14.4286 7.35312 13.9319 6.47795 13.0478C5.60278 12.1637 5.11111 10.9646 5.11111 9.71429C5.11111 8.46398 5.60278 7.26488 6.47795 6.38078C7.35312 5.49668 8.5401 5 9.77778 5C11.0155 5 12.2024 5.49668 13.0776 6.38078C13.9528 7.26488 14.4444 8.46398 14.4444 9.71429Z" stroke="#F49907" stroke-width="2" stroke-linecap="round"/>
</svg>
