<svg width="18" height="18" viewBox="0 0 18 18" fill="none" xmlns="http://www.w3.org/2000/svg">
<g clip-path="url(#clip0_174_395)">
<path d="M9 5.5C8.60218 5.5 8.22064 5.65804 7.93934 5.93934C7.65804 6.22064 7.5 6.60218 7.5 7V7.107C7.5 7.23961 7.44732 7.36678 7.35355 7.46055C7.25979 7.55432 7.13261 7.607 7 7.607C6.86739 7.607 6.74021 7.55432 6.64645 7.46055C6.55268 7.36678 6.5 7.23961 6.5 7.107V7C6.5 6.33696 6.76339 5.70107 7.23223 5.23223C7.70107 4.76339 8.33696 4.5 9 4.5H9.116C9.60291 4.50015 10.0781 4.64939 10.4777 4.92764C10.8772 5.20589 11.182 5.59982 11.351 6.05645C11.52 6.51308 11.5452 7.01052 11.4231 7.48187C11.301 7.95321 11.0375 8.37587 10.668 8.693L9.897 9.354C9.77267 9.46084 9.67284 9.59325 9.60433 9.74218C9.53582 9.89111 9.50023 10.0531 9.5 10.217V10.75C9.5 10.8826 9.44732 11.0098 9.35355 11.1036C9.25979 11.1973 9.13261 11.25 9 11.25C8.86739 11.25 8.74021 11.1973 8.64645 11.1036C8.55268 11.0098 8.5 10.8826 8.5 10.75V10.217C8.5 9.593 8.773 9.001 9.246 8.595L10.016 7.935C10.2307 7.75102 10.384 7.50568 10.4551 7.232C10.5262 6.95831 10.5117 6.66942 10.4137 6.40419C10.3157 6.13895 10.1387 5.91011 9.90673 5.74846C9.67472 5.58681 9.39877 5.5001 9.116 5.5H9ZM9 13.5C9.19891 13.5 9.38968 13.421 9.53033 13.2803C9.67098 13.1397 9.75 12.9489 9.75 12.75C9.75 12.5511 9.67098 12.3603 9.53033 12.2197C9.38968 12.079 9.19891 12 9 12C8.80109 12 8.61032 12.079 8.46967 12.2197C8.32902 12.3603 8.25 12.5511 8.25 12.75C8.25 12.9489 8.32902 13.1397 8.46967 13.2803C8.61032 13.421 8.80109 13.5 9 13.5Z" fill="black" fill-opacity="0.46"/>
<path d="M0 9C0 6.61305 0.948212 4.32387 2.63604 2.63604C4.32387 0.948212 6.61305 0 9 0C11.3869 0 13.6761 0.948212 15.364 2.63604C17.0518 4.32387 18 6.61305 18 9C18 11.3869 17.0518 13.6761 15.364 15.364C13.6761 17.0518 11.3869 18 9 18C6.61305 18 4.32387 17.0518 2.63604 15.364C0.948212 13.6761 0 11.3869 0 9ZM9 1.05882C6.89387 1.05882 4.874 1.89548 3.38474 3.38474C1.89548 4.874 1.05882 6.89387 1.05882 9C1.05882 11.1061 1.89548 13.126 3.38474 14.6153C4.874 16.1045 6.89387 16.9412 9 16.9412C11.1061 16.9412 13.126 16.1045 14.6153 14.6153C16.1045 13.126 16.9412 11.1061 16.9412 9C16.9412 6.89387 16.1045 4.874 14.6153 3.38474C13.126 1.89548 11.1061 1.05882 9 1.05882Z" fill="black" fill-opacity="0.46"/>
</g>
<defs>
<clipPath id="clip0_174_395">
<rect width="18" height="18" fill="white"/>
</clipPath>
</defs>
</svg>
