<svg width="32" height="32" viewBox="0 0 32 32" fill="none" xmlns="http://www.w3.org/2000/svg">
<path d="M11.875 17.3H20.125M11.875 22.5H16M5 5.6V26.4C5 27.0896 5.28973 27.7509 5.80546 28.2385C6.32118 28.7261 7.02065 29 7.75 29H24.25C24.9793 29 25.6788 28.7261 26.1945 28.2385C26.7103 27.7509 27 27.0896 27 26.4V11.2446C27 10.8982 26.9267 10.5554 26.7846 10.2361C26.6424 9.91688 26.4342 9.62771 26.1723 9.3856L20.0673 3.741C19.5535 3.26606 18.8635 3.00008 18.145 3H7.75C7.02065 3 6.32118 3.27393 5.80546 3.76152C5.28973 4.24912 5 4.91044 5 5.6Z" stroke="#5849E1" stroke-width="2" stroke-linecap="round" stroke-linejoin="round"/>
<path d="M18.7502 3V8.2C18.7502 8.88956 19.04 9.55088 19.5557 10.0385C20.0714 10.5261 20.7709 10.8 21.5002 10.8H27.0002" stroke="#5849E1" stroke-width="2" stroke-linejoin="round"/>
</svg>
