<svg width="48" height="56" viewBox="0 0 48 56" fill="none" xmlns="http://www.w3.org/2000/svg">
<path d="M15.75 30.6H32.25M15.75 41H24M2 7.2V48.8C2 50.1791 2.57946 51.5018 3.61091 52.477C4.64236 53.4521 6.04131 54 7.5 54H40.5C41.9587 54 43.3576 53.4521 44.3891 52.477C45.4205 51.5018 46 50.1791 46 48.8V18.4892C45.9999 17.7965 45.8534 17.1107 45.5691 16.4722C45.2848 15.8338 44.8685 15.2554 44.3445 14.7712L32.1345 3.482C31.107 2.53211 29.7271 2.00017 28.29 2H7.5C6.04131 2 4.64236 2.54786 3.61091 3.52304C2.57946 4.49823 2 5.82087 2 7.2Z" stroke="#28AB3C" stroke-width="4" stroke-linecap="round" stroke-linejoin="round"/>
<path d="M29.5005 2V12.4C29.5005 13.7791 30.08 15.1018 31.1114 16.077C32.1429 17.0521 33.5418 17.6 35.0005 17.6H46.0005" stroke="#28AB3C" stroke-width="4" stroke-linejoin="round"/>
</svg>
