<svg width="32" height="32" viewBox="0 0 32 32" fill="none" xmlns="http://www.w3.org/2000/svg">
<path d="M16.0001 21.3333C14.9392 21.3333 13.9218 20.9119 13.1717 20.1618C12.4215 19.4116 12.0001 18.3942 12.0001 17.3333C12.0001 15.84 12.8134 14.5333 14.0001 13.8533L26.9468 6.36L19.5734 19.1333C18.9068 20.44 17.5601 21.3333 16.0001 21.3333ZM16.0001 4C18.4134 4 20.6668 4.66667 22.6268 5.76L19.8268 7.37333C18.6668 6.92 17.3334 6.66667 16.0001 6.66667C13.1711 6.66667 10.458 7.79047 8.45762 9.79086C6.45723 11.7912 5.33342 14.5044 5.33342 17.3333C5.33342 20.28 6.52009 22.9467 8.45342 24.8667H8.46675C8.98675 25.3867 8.98675 26.2267 8.46675 26.7467C7.94675 27.2667 7.09342 27.2667 6.57342 26.76C5.33345 25.5235 4.35 24.0542 3.67957 22.4364C3.00914 20.8187 2.66495 19.0845 2.66676 17.3333C2.66676 13.7971 4.07151 10.4057 6.572 7.90524C9.07248 5.40476 12.4639 4 16.0001 4ZM29.3334 17.3333C29.3334 21.0133 27.8401 24.3467 25.4268 26.76C24.9068 27.2667 24.0668 27.2667 23.5468 26.7467C23.4231 26.6233 23.3251 26.4768 23.2582 26.3155C23.1913 26.1542 23.1568 25.9813 23.1568 25.8067C23.1568 25.632 23.1913 25.4591 23.2582 25.2978C23.3251 25.1365 23.4231 24.99 23.5468 24.8667C24.5384 23.8791 25.3246 22.705 25.8601 21.412C26.3956 20.119 26.6697 18.7328 26.6668 17.3333C26.6668 16 26.4134 14.6667 25.9468 13.4667L27.5601 10.6667C28.6668 12.6667 29.3334 14.9067 29.3334 17.3333Z" fill="#28AB3C"/>
</svg>
