<svg width="18" height="18" viewBox="0 0 18 18" fill="none" xmlns="http://www.w3.org/2000/svg">
<path d="M5.30743 15.1098L8.9999 12.7707L12.6924 15.1405L11.7253 10.7085L14.9782 7.75387L10.6996 7.35376L8.9999 3.16799L7.30019 7.32299L3.02161 7.7231L6.2745 10.7085L5.30743 15.1098ZM8.9999 14.2197L4.74477 16.9183C4.61973 16.9831 4.50368 17.0094 4.39662 16.9971C4.29034 16.9839 4.18679 16.9453 4.08598 16.8813C3.98439 16.8157 3.9078 16.7229 3.85623 16.6031C3.80465 16.4833 3.79996 16.3524 3.84216 16.2104L4.97452 11.1505L1.2293 7.74033C1.1238 7.65005 1.05425 7.54212 1.02064 7.41655C0.987039 7.29098 0.994463 7.17074 1.04291 7.05583C1.09137 6.94093 1.15584 6.84655 1.23633 6.77268C1.3176 6.70127 1.42701 6.65285 1.56455 6.62741L6.5066 6.17436L8.43372 1.38288C8.48686 1.24745 8.56345 1.14979 8.66348 1.08987C8.7635 1.02996 8.87565 1 8.9999 1C9.12416 1 9.23669 1.02996 9.3375 1.08987C9.43831 1.14979 9.5145 1.24745 9.56608 1.38288L11.4932 6.17436L16.4341 6.62741C16.5724 6.65203 16.6822 6.70086 16.7635 6.77391C16.8447 6.84614 16.9096 6.94011 16.9581 7.05583C17.0057 7.17074 17.0128 7.29098 16.9792 7.41655C16.9456 7.54212 16.876 7.65005 16.7705 7.74033L13.0253 11.1505L14.1576 16.2104C14.2014 16.3507 14.1971 16.4812 14.1447 16.6019C14.0924 16.7225 14.0154 16.8153 13.9138 16.8801C13.8138 16.9458 13.7102 16.9847 13.6032 16.9971C13.4969 17.0094 13.3812 16.9831 13.2562 16.9183L8.9999 14.2197Z" fill="black" fill-opacity="0.46"/>
</svg>
