<svg width="32" height="32" viewBox="0 0 32 32" fill="none" xmlns="http://www.w3.org/2000/svg">
<path d="M10.3949 2H21.6051C21.9105 2 22.1736 2 22.4112 2.0272C23.2625 2.12718 24.0534 2.4946 24.6562 3.07021C25.259 3.64582 25.6386 4.39608 25.7338 5.2H27.1016C27.4613 5.1968 28.2504 5.1904 28.9021 5.6016C29.7455 6.1312 30 7.0416 30 8C30 12.3616 27.5343 15.2736 24.3864 16.8912C22.6301 19.9056 19.3855 22 16 22C13.4223 22 10.977 20.6848 9.21721 18.8656C8.63249 18.2641 8.11922 17.6042 7.68655 16.8976C4.54036 15.288 2 12.3792 2 8C2 7.04 2.25455 6.1312 3.09624 5.6016C3.74958 5.1904 4.53867 5.1968 4.89842 5.2H6.26618L6.27127 5.1552C6.37619 4.36006 6.75946 3.62065 7.36038 3.05407C7.9613 2.48749 8.74552 2.12612 9.58885 2.0272C9.82642 2 10.0895 2 10.3949 2ZM8.78788 6.4V6.4048L8.77091 12V12.0016C8.77091 13.1552 9.12049 14.3344 9.7263 15.4144L9.75006 15.4544C10.1149 16.0976 10.5714 16.7024 11.0992 17.2464C12.528 18.7248 14.337 19.6 16.0017 19.6C18.4148 19.6 20.9585 17.9552 22.2805 15.5296C22.881 14.4391 23.1952 13.2287 23.1968 12L23.1935 11.9968L23.2138 5.9792C23.2138 5.592 23.2104 5.5072 23.2036 5.4512C23.1685 5.18651 23.0408 4.9404 22.8407 4.75177C22.6407 4.56314 22.3796 4.44275 22.0989 4.4096C21.9125 4.39914 21.7256 4.39593 21.5389 4.4H10.4628C10.0504 4.4 9.96218 4.4016 9.90279 4.4096C9.62205 4.44275 9.36103 4.56314 9.16097 4.75177C8.96091 4.9404 8.83322 5.18651 8.79806 5.4512C8.78696 5.62699 8.78357 5.80314 8.78788 5.9792V6.4ZM25.7542 7.6L25.7389 12V12.0016M25.6999 12.864C26.7825 11.6352 27.4562 10.032 27.4562 8C27.4562 7.8112 27.4393 7.6864 27.424 7.608C27.2935 7.60059 27.1627 7.59792 27.032 7.6H25.7542M6.25939 12.7712C6.23379 12.5149 6.22133 12.2575 6.22206 12V11.9968L6.23733 7.6H4.9697C4.78473 7.6 4.66764 7.6 4.5777 7.608C4.55385 7.73741 4.54305 7.86867 4.54545 8C4.54545 9.9792 5.20388 11.552 6.25939 12.7712ZM16 22.8C16.3375 22.8 16.6613 22.9264 16.9 23.1515C17.1386 23.3765 17.2727 23.6817 17.2727 24V27.6H22.7879C23.1254 27.6 23.4492 27.7264 23.6878 27.9515C23.9265 28.1765 24.0606 28.4817 24.0606 28.8C24.0606 29.1183 23.9265 29.4235 23.6878 29.6485C23.4492 29.8736 23.1254 30 22.7879 30H9.21212C8.87457 30 8.55085 29.8736 8.31217 29.6485C8.07348 29.4235 7.93939 29.1183 7.93939 28.8C7.93939 28.4817 8.07348 28.1765 8.31217 27.9515C8.55085 27.7264 8.87457 27.6 9.21212 27.6H14.7273V24C14.7273 23.6817 14.8614 23.3765 15.1 23.1515C15.3387 22.9264 15.6625 22.8 16 22.8Z" fill="#F49907"/>
<path d="M15.6934 8.73999C15.719 8.67986 15.7617 8.62858 15.8163 8.59255C15.8708 8.55651 15.9347 8.53729 16.0001 8.53729C16.0654 8.53729 16.1293 8.55651 16.1839 8.59255C16.2384 8.62858 16.2811 8.67986 16.3067 8.73999L16.9801 10.356C17.0036 10.4124 17.0421 10.4612 17.0915 10.4972C17.1409 10.5332 17.1992 10.5549 17.2601 10.56L19.0054 10.7C19.071 10.7052 19.1337 10.7297 19.1854 10.7705C19.2371 10.8112 19.2756 10.8664 19.296 10.929C19.3164 10.9917 19.3178 11.0589 19.3 11.1223C19.2822 11.1857 19.2461 11.2425 19.1961 11.2853L17.8667 12.424C17.8203 12.464 17.7857 12.516 17.7669 12.5743C17.7481 12.6327 17.7457 12.6951 17.7601 12.7547L18.1654 14.456C18.181 14.5202 18.1772 14.5876 18.1545 14.6496C18.1317 14.7117 18.091 14.7655 18.0376 14.8044C17.9841 14.8433 17.9204 14.8654 17.8543 14.8679C17.7883 14.8704 17.723 14.8533 17.6667 14.8187L16.1734 13.9067C16.1212 13.8749 16.0612 13.858 16.0001 13.858C15.9389 13.858 15.879 13.8749 15.8267 13.9067L14.3334 14.8187C14.2771 14.8533 14.2118 14.8704 14.1458 14.8679C14.0798 14.8654 14.016 14.8433 13.9625 14.8044C13.9091 14.7655 13.8684 14.7117 13.8457 14.6496C13.8229 14.5876 13.8191 14.5202 13.8347 14.456L14.2414 12.7547C14.2557 12.6951 14.2534 12.6327 14.2346 12.5743C14.2157 12.516 14.1812 12.464 14.1347 12.424L12.8041 11.2853C12.7536 11.2426 12.717 11.1857 12.699 11.1221C12.6809 11.0585 12.6822 10.9909 12.7026 10.928C12.723 10.8651 12.7617 10.8097 12.8138 10.7689C12.8658 10.728 12.9288 10.7036 12.9947 10.6987L14.7387 10.56C14.7998 10.5551 14.8584 10.5335 14.9081 10.4975C14.9577 10.4616 14.9965 10.4126 15.0201 10.356L15.6934 8.73999Z" fill="#F49907"/>
</svg>
