<svg width="32" height="32" viewBox="0 0 32 32" fill="none" xmlns="http://www.w3.org/2000/svg">
<path fill-rule="evenodd" clip-rule="evenodd" d="M27.6933 16C27.6933 15.5213 27.4346 15.208 26.9173 14.5787C25.024 12.28 20.848 8 16 8C11.152 8 6.97597 12.28 5.08264 14.5787C4.56531 15.208 4.30664 15.5213 4.30664 16C4.30664 16.4787 4.56531 16.792 5.08264 17.4213C6.97597 19.72 11.152 24 16 24C20.848 24 25.024 19.72 26.9173 17.4213C27.4346 16.792 27.6933 16.4787 27.6933 16ZM16 20C17.0608 20 18.0783 19.5786 18.8284 18.8284C19.5785 18.0783 20 17.0609 20 16C20 14.9391 19.5785 13.9217 18.8284 13.1716C18.0783 12.4214 17.0608 12 16 12C14.9391 12 13.9217 12.4214 13.1715 13.1716C12.4214 13.9217 12 14.9391 12 16C12 17.0609 12.4214 18.0783 13.1715 18.8284C13.9217 19.5786 14.9391 20 16 20Z" fill="#DAF276"/>
</svg>
