<svg width="32" height="32" viewBox="0 0 32 32" fill="none" xmlns="http://www.w3.org/2000/svg">
<path fill-rule="evenodd" clip-rule="evenodd" d="M24.316 20.1544C25.2481 19.3075 26.1175 18.394 26.9173 17.4211C27.4346 16.7918 27.6933 16.4784 27.6933 15.9998C27.6933 15.5211 27.4346 15.2078 26.9173 14.5784C25.024 12.2798 20.848 7.99976 16 7.99976C14.88 7.99976 13.7973 8.22776 12.7693 8.60776L16.1653 12.0038C17.1682 12.045 18.1188 12.4618 18.8287 13.1715C19.5385 13.8811 19.9557 14.8316 19.9973 15.8344L24.316 20.1544ZM12.524 14.0184C12.0893 14.7803 11.9172 15.6638 12.0339 16.5331C12.1507 17.4024 12.55 18.2092 13.1703 18.8293C13.7905 19.4494 14.5974 19.8485 15.4667 19.9651C16.3361 20.0816 17.2196 19.9092 17.9813 19.4744L21.0493 22.5451C19.5146 23.4064 17.804 23.9998 16 23.9998C11.152 23.9998 6.97597 19.7198 5.08264 17.4211C4.56531 16.7918 4.30664 16.4784 4.30664 15.9998C4.30664 15.5211 4.56531 15.2078 5.08264 14.5784C5.97997 13.4891 7.39197 11.9518 9.14397 10.6398L12.524 14.0184Z" fill="#DAF276"/>
<path d="M6.66675 2.6665L28.0001 23.9998" stroke="#DAF276" stroke-width="2.66667"/>
</svg>
