<svg width="20" height="20" viewBox="0 0 20 20" fill="none" xmlns="http://www.w3.org/2000/svg">
<path d="M17.2558 5.2442C17.412 5.40048 17.4998 5.6124 17.4998 5.83337C17.4998 6.05434 17.412 6.26626 17.2558 6.42254L8.92243 14.7559C8.76616 14.9121 8.55424 14.9999 8.33327 14.9999C8.1123 14.9999 7.90037 14.9121 7.7441 14.7559L3.57743 10.5892C3.42563 10.432 3.34164 10.2215 3.34354 10.003C3.34544 9.78454 3.43308 9.57553 3.58758 9.42102C3.74209 9.26651 3.9511 9.17887 4.1696 9.17697C4.3881 9.17508 4.5986 9.25907 4.75577 9.41087L8.33327 12.9884L16.0774 5.2442C16.2337 5.08798 16.4456 5.00021 16.6666 5.00021C16.8876 5.00021 17.0995 5.08798 17.2558 5.2442Z" fill="#BEDE3A"/>
</svg>
