<svg width="102" height="78" viewBox="0 0 102 78" fill="none" xmlns="http://www.w3.org/2000/svg">
<g clip-path="url(#clip0_107_2915)">
<path d="M29.2982 0.208893C19.8823 1.49015 11.3992 6.76894 5.97425 14.7469C-1.14388 25.2191 -1.95591 38.6637 3.8319 50.0413C8.99773 60.206 19.0357 67.2614 30.0412 68.4573C32.3736 68.7135 37.4876 68.594 39.4053 68.2352L40.7011 67.979L45.4523 72.7452C49.9789 77.2724 50.2553 77.5115 51.1364 77.7678C53.0542 78.2974 55.2483 77.9044 56.9415 76.7598C57.4253 76.4353 59.7749 74.2657 62.1764 71.9252L66.5475 67.6885L63.4895 63.8448C61.8136 61.7264 59.965 59.4201 59.3776 58.7197C58.7901 58.0193 58.22 57.3018 58.0818 57.148C57.8917 56.8918 57.9954 56.7039 58.9456 55.6447C61.278 53.0822 63.4377 49.563 64.8026 46.1634C65.0963 45.4117 65.3727 44.7796 65.39 44.7455C65.4763 44.66 70.9705 51.5618 75.7735 57.7801C77.8813 60.5135 85.7423 70.6098 86.848 72.0277L87.6601 73.0698H94.83H102L101.654 72.6769C101.464 72.4719 99.9959 70.7294 98.3891 68.799C96.7823 66.8685 93.6379 63.1102 91.4092 60.4452C80.7838 47.7521 77.9331 44.2842 77.9331 44.1475C77.9331 44.1134 78.3823 43.9767 78.9352 43.8571C82.9262 42.9859 86.9517 40.7821 89.8542 37.8779C93.9835 33.7608 95.9703 28.8066 95.953 22.6736C95.9358 18.8469 95.2965 16.1648 93.5515 12.6798C90.4589 6.44434 84.6539 2.19057 76.7755 0.430969L75.0824 0.0380554L53.0542 0.00388336C35.2415 -0.0131989 30.6977 0.0209732 29.2982 0.208893ZM37.263 10.459C41.9105 11.2106 46.1606 13.4315 49.7715 17.019C54.0217 21.2557 56.3195 26.1074 56.8551 31.9499C57.4253 38.305 55.041 44.5575 50.1689 49.5117C49.115 50.588 48.4585 51.3738 48.5449 51.4763C48.6312 51.5618 50.3589 54.4318 52.3631 57.8655C54.3845 61.2993 56.6478 65.126 57.3907 66.356C58.1509 67.6031 58.7556 68.6623 58.7556 68.7135C58.7556 68.7648 58.3409 68.799 57.8226 68.799H56.8897L53.1924 65.8435C43.69 58.3097 36.6755 52.7576 36.0881 52.3305L35.4316 51.8522V55.098V58.3439L34.7232 58.4635C33.0992 58.7368 28.6417 58.1047 26.2402 57.2505C18.2755 54.4147 12.4013 47.5984 10.5527 39.0737C10.0344 36.6992 9.98252 32.4112 10.4317 30.0708C12.384 19.7865 20.4524 11.8256 30.404 10.3906C32.0107 10.1515 35.5871 10.1856 37.263 10.459ZM76.0326 10.6981C79.9891 11.7402 83.0125 14.0807 84.5848 17.2923C85.4659 19.0861 85.7769 20.5382 85.7769 22.9299C85.7769 26.5857 84.7748 29.0799 82.2523 31.5741C81.0084 32.8212 80.5074 33.18 79.1425 33.8291C76.5164 35.0933 75.2033 35.3496 70.815 35.435L67.0486 35.5204V33.795C67.0486 25.9366 63.956 17.7194 58.7729 11.7915C58.0991 11.0056 57.5462 10.3394 57.5462 10.271C57.5462 10.2198 61.3817 10.2027 66.0638 10.2369C74.2358 10.3052 74.6159 10.3223 76.0326 10.6981Z" fill="#201F31"/>
<path d="M31.6821 18.8303C30.179 19.1036 28.434 19.8724 27.1901 20.8291C25.5315 22.0932 24.1321 24.6557 23.7865 27.0645L23.6829 27.7991H26.3262H28.9524L29.177 26.9108C29.4534 25.7662 30.1099 24.9462 31.302 24.297C32.1141 23.8528 32.3905 23.7845 33.5308 23.8016C34.2564 23.8187 35.0857 23.9382 35.4312 24.0749C38.161 25.2195 38.7657 28.4824 36.6061 30.4641C36.2951 30.7545 35.5176 31.3525 34.8784 31.7966C31.8722 33.8808 30.7664 35.8796 30.7664 39.1938V40.6117H33.358H35.9496V39.7917C35.9496 38.7154 36.3296 37.5025 36.8825 36.785C37.1244 36.4604 37.9364 35.7771 38.6793 35.2646C41.7374 33.1462 43.2059 30.6862 43.2059 27.6283C43.2059 23.3232 39.9578 19.6161 35.5176 18.8303C33.859 18.5399 33.3062 18.5399 31.6821 18.8303Z" fill="#F1CCBF"/>
<path d="M31.8893 43.4139C31.1291 43.7385 30.1098 44.9343 29.9716 45.6518C29.7815 46.6426 29.9889 47.8897 30.4381 48.5389C31.682 50.3327 34.1699 50.6573 35.7767 49.2222C37.5908 47.5993 37.2798 44.7464 35.172 43.5676C34.3772 43.1235 32.7359 43.038 31.8893 43.4139Z" fill="#F1CCBF"/>
</g>
<defs>
<clipPath id="clip0_107_2915">
<rect width="102" height="78" fill="white"/>
</clipPath>
</defs>
</svg>
