<svg width="36" height="36" viewBox="0 0 36 36" fill="none" xmlns="http://www.w3.org/2000/svg">
<path d="M18 26.6967C18.7956 26.6967 19.5587 26.3757 20.1213 25.8041C20.6839 25.2326 21 24.4574 21 23.6491C21 22.8409 20.6839 22.0657 20.1213 21.4941C19.5587 20.9226 18.7956 20.6015 18 20.6015C17.2044 20.6015 16.4413 20.9226 15.8787 21.4941C15.3161 22.0657 15 22.8409 15 23.6491C15 24.4574 15.3161 25.2326 15.8787 25.8041C16.4413 26.3757 17.2044 26.6967 18 26.6967ZM27 12.9825C27.7956 12.9825 28.5587 13.3036 29.1213 13.8751C29.6839 14.4466 30 15.2218 30 16.0301V31.2682C30 32.0765 29.6839 32.8516 29.1213 33.4232C28.5587 33.9947 27.7956 34.3158 27 34.3158H9C8.20435 34.3158 7.44129 33.9947 6.87868 33.4232C6.31607 32.8516 6 32.0765 6 31.2682V16.0301C6 15.2218 6.31607 14.4466 6.87868 13.8751C7.44129 13.3036 8.20435 12.9825 9 12.9825H10.5V9.93484C10.5 7.91415 11.2902 5.97621 12.6967 4.54736C14.1032 3.11851 16.0109 2.3158 18 2.3158C18.9849 2.3158 19.9602 2.51287 20.8701 2.89576C21.7801 3.27865 22.6069 3.83987 23.3033 4.54736C23.9997 5.25486 24.5522 6.09477 24.9291 7.01916C25.306 7.94355 25.5 8.9343 25.5 9.93484V12.9825H27ZM18 5.36342C16.8065 5.36342 15.6619 5.84505 14.818 6.70236C13.9741 7.55966 13.5 8.72243 13.5 9.93484V12.9825H22.5V9.93484C22.5 8.72243 22.0259 7.55966 21.182 6.70236C20.3381 5.84505 19.1935 5.36342 18 5.36342Z" fill="#DAF276"/>
</svg>
