<svg width="106" height="106" viewBox="0 0 106 106" fill="none" xmlns="http://www.w3.org/2000/svg">
<g clip-path="url(#clip0_107_2526)">
<g filter="url(#filter0_f_107_2526)">
<path d="M27 113C48.0843 98.952 90.4538 64.5678 91.257 39.4151C92.0602 14.2624 116.357 24.0336 121.378 39.4151L152 113H27Z" fill="#F3F7D9"/>
</g>
<g filter="url(#filter1_f_107_2526)">
<path d="M66 -18C44.9157 -3.95195 2.54618 30.4322 1.74297 55.5849C0.939758 80.7376 -23.3574 70.9664 -28.3775 55.5849L-59 -18H66Z" fill="#F3F7D9"/>
</g>
<path d="M82.9995 55.6666C85.7345 55.6666 87.9525 57.8838 87.9526 60.6188C87.9526 63.3539 85.7346 65.5719 82.9995 65.5719C80.2645 65.5717 78.0474 63.3538 78.0474 60.6188C78.0475 57.8839 80.2646 55.6668 82.9995 55.6666Z" fill="#DAF276" stroke="black" stroke-width="0.761905"/>
<path d="M83.0005 70.3334C85.8926 70.3334 88.4926 70.9942 90.356 72.0424C92.2311 73.0973 93.2856 74.4947 93.2856 75.9525C93.2856 77.6422 93.2656 78.945 92.0933 79.8998C91.4924 80.3891 90.5584 80.8108 89.0913 81.1078C87.6259 81.4044 85.6539 81.5716 83.0005 81.5717C80.3469 81.5717 78.3741 81.4044 76.9087 81.1078C75.442 80.8108 74.5086 80.389 73.9077 79.8998C72.7352 78.945 72.7144 77.6423 72.7144 75.9525C72.7144 74.4946 73.7696 73.0973 75.645 72.0424C77.5084 70.9942 80.1083 70.3334 83.0005 70.3334Z" fill="#DAF276" stroke="black" stroke-width="0.761905"/>
<path d="M22.9995 55.6666C25.7345 55.6666 27.9525 57.8838 27.9526 60.6188C27.9526 63.3539 25.7346 65.5719 22.9995 65.5719C20.2645 65.5717 18.0474 63.3538 18.0474 60.6188C18.0475 57.8839 20.2646 55.6668 22.9995 55.6666Z" fill="#DAF276" stroke="black" stroke-width="0.761905"/>
<path d="M23.0005 70.3334C25.8926 70.3334 28.4926 70.9942 30.356 72.0424C32.2311 73.0973 33.2856 74.4947 33.2856 75.9525C33.2856 77.6422 33.2656 78.945 32.0933 79.8998C31.4924 80.3891 30.5584 80.8108 29.0913 81.1078C27.6259 81.4044 25.6539 81.5716 23.0005 81.5717C20.3469 81.5717 18.3741 81.4044 16.9087 81.1078C15.442 80.8108 14.5086 80.389 13.9077 79.8998C12.7352 78.945 12.7144 77.6423 12.7144 75.9525C12.7144 74.4946 13.7696 73.0973 15.645 72.0424C17.5084 70.9942 20.1083 70.3334 23.0005 70.3334Z" fill="#DAF276" stroke="black" stroke-width="0.761905"/>
<path d="M53 60.5C56.5899 60.5 59.5 63.4101 59.5 67C59.5 70.5899 56.5899 73.5 53 73.5C49.4101 73.5 46.5 70.5899 46.5 67C46.5 63.4101 49.4101 60.5 53 60.5Z" fill="#DAF276" stroke="black"/>
<path d="M53 79.7501C56.7961 79.7501 60.2086 80.6166 62.6543 81.9923C65.1157 83.3769 66.5 85.2116 66.5 87.1251C66.5 89.3429 66.4733 91.0526 64.9346 92.3058C64.1459 92.9481 62.9197 93.5009 60.9941 93.8907C59.0708 94.2801 56.4826 94.5001 53 94.5001C49.5174 94.5001 46.9292 94.2801 45.0059 93.8907C43.0803 93.5009 41.8541 92.9481 41.0654 92.3058C39.5267 91.0526 39.5 89.3429 39.5 87.1251C39.5 85.2116 40.8843 83.3769 43.3457 81.9923C45.7914 80.6166 49.2039 79.7501 53 79.7501Z" fill="#DAF276" stroke="black"/>
<path d="M37.9032 39.449C37.3251 40.0269 37.0002 40.8109 37 41.6284V44.9763C37 45.385 37.1624 45.7771 37.4515 46.0662C37.7405 46.3552 38.1326 46.5176 38.5414 46.5176H43.1654C43.5742 46.5176 43.9663 46.3552 44.2553 46.0662C44.5444 45.7771 44.7068 45.385 44.7068 44.9763V43.4349C44.7068 43.0261 44.8692 42.6341 45.1582 42.345C45.4473 42.0559 45.8393 41.8935 46.2481 41.8935H47.7895C48.1983 41.8935 48.5903 41.7312 48.8794 41.4421C49.1684 41.153 49.3308 40.761 49.3308 40.3522V38.8108C49.3308 38.4021 49.4932 38.01 49.7823 37.7209C50.0713 37.4319 50.4634 37.2695 50.8722 37.2695H51.1373C51.9548 37.2693 52.7388 36.9444 53.3168 36.3663L54.5714 35.1116C56.7137 35.8578 59.0457 35.855 61.1861 35.1035C63.3265 34.352 65.1485 32.8964 66.3541 30.9748C67.5596 29.0532 68.0774 26.7793 67.8226 24.5252C67.5678 22.271 66.5556 20.1701 64.9516 18.566C63.3475 16.962 61.2466 15.9498 58.9924 15.695C56.7383 15.4402 54.4644 15.958 52.5428 17.1635C50.6212 18.3691 49.1656 20.1911 48.4141 22.3315C47.6626 24.4719 47.6598 26.804 48.406 28.9462L37.9032 39.449Z" fill="#DAF276" stroke="black" stroke-width="0.616541" stroke-linecap="round" stroke-linejoin="round"/>
<path d="M59.6577 25.8636C60.9346 25.8636 61.9698 24.8284 61.9698 23.5515C61.9698 22.2746 60.9346 21.2395 59.6577 21.2395C58.3808 21.2395 57.3457 22.2746 57.3457 23.5515C57.3457 24.8284 58.3808 25.8636 59.6577 25.8636Z" fill="#FEFDFE" stroke="black" stroke-width="0.616541" stroke-linecap="round" stroke-linejoin="round"/>
<path d="M61.0449 7V12.8571M73.684 9.15789L68.7517 14.7068M77.9998 20.8722H72.4509" stroke="black" stroke-width="0.616541" stroke-linecap="round"/>
</g>
<defs>
<filter id="filter0_f_107_2526" x="-2" y="-5" width="183" height="147" filterUnits="userSpaceOnUse" color-interpolation-filters="sRGB">
<feFlood flood-opacity="0" result="BackgroundImageFix"/>
<feBlend mode="normal" in="SourceGraphic" in2="BackgroundImageFix" result="shape"/>
<feGaussianBlur stdDeviation="14.5" result="effect1_foregroundBlur_107_2526"/>
</filter>
<filter id="filter1_f_107_2526" x="-88" y="-47" width="183" height="147" filterUnits="userSpaceOnUse" color-interpolation-filters="sRGB">
<feFlood flood-opacity="0" result="BackgroundImageFix"/>
<feBlend mode="normal" in="SourceGraphic" in2="BackgroundImageFix" result="shape"/>
<feGaussianBlur stdDeviation="14.5" result="effect1_foregroundBlur_107_2526"/>
</filter>
<clipPath id="clip0_107_2526">
<rect width="106" height="106" rx="16" fill="white"/>
</clipPath>
</defs>
</svg>
