<svg width="38" height="38" viewBox="0 0 38 38" fill="none" xmlns="http://www.w3.org/2000/svg">
<path d="M3.16669 14.2501C3.16669 11.2639 3.16669 9.77241 4.09452 8.84458C5.02235 7.91675 6.51385 7.91675 9.50002 7.91675H28.5C31.4862 7.91675 32.9777 7.91675 33.9055 8.84458C34.8334 9.77241 34.8334 11.2639 34.8334 14.2501C34.8334 14.9958 34.8334 15.3695 34.6022 15.6022C34.3694 15.8334 33.9942 15.8334 33.25 15.8334H4.75002C4.00427 15.8334 3.6306 15.8334 3.39785 15.6022C3.16669 15.3695 3.16669 14.9942 3.16669 14.2501ZM3.16669 28.5001C3.16669 31.4862 3.16669 32.9777 4.09452 33.9056C5.02235 34.8334 6.51385 34.8334 9.50002 34.8334H28.5C31.4862 34.8334 32.9777 34.8334 33.9055 33.9056C34.8334 32.9777 34.8334 31.4862 34.8334 28.5001V20.5834C34.8334 19.8377 34.8334 19.464 34.6022 19.2312C34.3694 19.0001 33.9942 19.0001 33.25 19.0001H4.75002C4.00427 19.0001 3.6306 19.0001 3.39785 19.2312C3.16669 19.464 3.16669 19.8392 3.16669 20.5834V28.5001Z" fill="#B1B1AF"/>
<path d="M11.0833 4.75024V9.50024M26.9166 4.75024V9.50024" stroke="#B1B1AF" stroke-width="3.16667" stroke-linecap="round"/>
</svg>
