<svg width="38" height="38" viewBox="0 0 38 38" fill="none" xmlns="http://www.w3.org/2000/svg">
<path d="M32.5174 9.488C32.8264 9.80055 33 10.2244 33 10.6664C33 11.1083 32.8264 11.5322 32.5174 11.8447L16.0347 28.512C15.7256 28.8245 15.3064 29 14.8694 29C14.4323 29 14.0131 28.8245 13.704 28.512L5.46269 20.1784C5.16244 19.864 4.99631 19.443 5.00006 19.006C5.00382 18.569 5.17717 18.151 5.48277 17.8419C5.78837 17.5329 6.20178 17.3576 6.63395 17.3538C7.06612 17.35 7.48248 17.518 7.79334 17.8216L14.8694 24.9769L30.1868 9.488C30.4958 9.17553 30.915 9 31.3521 9C31.7891 9 32.2083 9.17553 32.5174 9.488Z" fill="#F49907"/>
</svg>
