<svg width="38" height="38" viewBox="0 0 38 38" fill="none" xmlns="http://www.w3.org/2000/svg">
<path d="M31.6667 6.33337H6.33338C4.59172 6.33337 3.16672 7.75837 3.16672 9.50004V28.5C3.16672 30.2417 4.59172 31.6667 6.33338 31.6667H31.6667C33.4084 31.6667 34.8334 30.2417 34.8334 28.5V9.50004C34.8334 7.75837 33.4084 6.33337 31.6667 6.33337ZM31.0334 13.0625L20.6784 19.5384C19.6492 20.1875 18.3509 20.1875 17.3217 19.5384L6.96672 13.0625C6.80795 12.9734 6.66892 12.853 6.55804 12.7086C6.44716 12.5642 6.36673 12.3988 6.32163 12.2224C6.27652 12.046 6.26768 11.8623 6.29563 11.6824C6.32358 11.5024 6.38775 11.3301 6.48425 11.1757C6.58074 11.0213 6.70756 10.8881 6.85703 10.7841C7.0065 10.6802 7.17551 10.6076 7.35384 10.5708C7.53216 10.5341 7.71608 10.5339 7.89448 10.5703C8.07288 10.6067 8.24203 10.6789 8.39172 10.7825L19.0001 17.4167L29.6084 10.7825C29.7581 10.6789 29.9272 10.6067 30.1056 10.5703C30.284 10.5339 30.4679 10.5341 30.6463 10.5708C30.8246 10.6076 30.9936 10.6802 31.1431 10.7841C31.2925 10.8881 31.4194 11.0213 31.5159 11.1757C31.6124 11.3301 31.6765 11.5024 31.7045 11.6824C31.7324 11.8623 31.7236 12.046 31.6785 12.2224C31.6334 12.3988 31.5529 12.5642 31.4421 12.7086C31.3312 12.853 31.1922 12.9734 31.0334 13.0625Z" fill="#B1B1AF"/>
</svg>
