<svg width="28" height="28" viewBox="0 0 28 28" fill="none" xmlns="http://www.w3.org/2000/svg">
<path d="M24.1578 7.34207C24.3765 7.56085 24.4994 7.85755 24.4994 8.16691C24.4994 8.47626 24.3765 8.77296 24.1578 8.99174L12.4912 20.6584C12.2724 20.8771 11.9757 21 11.6663 21C11.357 21 11.0603 20.8771 10.8415 20.6584L5.00816 14.8251C4.79564 14.605 4.67805 14.3103 4.68071 14.0044C4.68337 13.6985 4.80606 13.4059 5.02237 13.1896C5.23868 12.9733 5.5313 12.8506 5.83719 12.848C6.14309 12.8453 6.43779 12.9629 6.65783 13.1754L11.6663 18.1839L22.5082 7.34207C22.7269 7.12336 23.0236 7.00049 23.333 7.00049C23.6424 7.00049 23.939 7.12336 24.1578 7.34207Z" fill="#3C8AFF"/>
</svg>
