<svg width="28" height="28" viewBox="0 0 28 28" fill="none" xmlns="http://www.w3.org/2000/svg">
<path d="M7.82517 6.17491L14.0003 12.3489L20.1755 6.17491C20.3955 5.96239 20.6902 5.8448 20.9961 5.84746C21.302 5.85011 21.5947 5.97281 21.811 6.18912C22.0273 6.40543 22.15 6.69805 22.1526 7.00394C22.1553 7.30984 22.0377 7.60454 21.8252 7.82458L15.6512 13.9997L21.8252 20.1749C22.0377 20.3949 22.1553 20.6896 22.1526 20.9955C22.15 21.3014 22.0273 21.5941 21.811 21.8104C21.5947 22.0267 21.302 22.1494 20.9961 22.152C20.6902 22.1547 20.3955 22.0371 20.1755 21.8246L14.0003 15.6506L7.82517 21.8246C7.71755 21.936 7.58882 22.0249 7.44648 22.086C7.30414 22.1472 7.15105 22.1794 6.99614 22.1807C6.84123 22.182 6.6876 22.1525 6.54423 22.0939C6.40085 22.0352 6.27059 21.9486 6.16104 21.839C6.0515 21.7295 5.96487 21.5992 5.90621 21.4559C5.84755 21.3125 5.81803 21.1589 5.81938 21.0039C5.82073 20.849 5.85291 20.6959 5.91405 20.5536C5.9752 20.4113 6.06408 20.2825 6.17551 20.1749L12.3495 13.9997L6.17551 7.82458C5.96299 7.60454 5.84539 7.30984 5.84805 7.00394C5.85071 6.69805 5.97341 6.40543 6.18972 6.18912C6.40603 5.97281 6.69864 5.85011 7.00454 5.84746C7.31043 5.8448 7.60514 5.96239 7.82517 6.17491Z" fill="#BD4243"/>
</svg>
