<svg width="28" height="28" viewBox="0 0 28 28" fill="none" xmlns="http://www.w3.org/2000/svg">
<rect x="0.5" y="0.5" width="27" height="27" rx="3.5" stroke="#3C8AFF" stroke-opacity="0.2"/>
<path d="M21.256 9.24423C21.4122 9.40051 21.5 9.61243 21.5 9.8334C21.5 10.0544 21.4122 10.2663 21.256 10.4226L12.9227 18.7559C12.7664 18.9121 12.5545 18.9999 12.3335 18.9999C12.1125 18.9999 11.9006 18.9121 11.7443 18.7559L7.57768 14.5892C7.42588 14.4321 7.34188 14.2216 7.34378 14.0031C7.34568 13.7846 7.43332 13.5756 7.58783 13.4211C7.74233 13.2665 7.95134 13.1789 8.16984 13.177C8.38834 13.1751 8.59884 13.2591 8.75601 13.4109L12.3335 16.9884L20.0777 9.24423C20.2339 9.08801 20.4459 9.00024 20.6668 9.00024C20.8878 9.00024 21.0997 9.08801 21.256 9.24423Z" fill="#3C8AFF"/>
</svg>
