<svg width="276" height="226" viewBox="0 0 276 226" fill="none" xmlns="http://www.w3.org/2000/svg">
<g clip-path="url(#clip0_96_946)">
<rect x="104" width="68" height="68" rx="34" fill="#F9F8FE"/>
<path d="M129.364 42.3345L146.335 25.364M133.607 25.364H146.335V38.0919" stroke="#201F31" stroke-width="2.25" stroke-linecap="round" stroke-linejoin="round"/>
<path d="M260 34C268.837 34 276 41.1634 276 50V210C276 218.837 268.837 226 260 226H16C7.16344 226 2.5772e-07 218.837 0 210V50C0 41.1634 7.16344 34 16 34H96.3975C96.3975 56.6437 115.023 75 138 75C160.977 75 179.603 56.6437 179.603 34H260Z" fill="#DAF276"/>
<g clip-path="url(#clip1_96_946)">
<path d="M207.168 38.3069C197.929 39.947 187.204 44.5597 179.558 50.2999C169.363 57.8853 160.761 73.2609 158.637 87.714L158 92.1217H174.248H190.389L191.77 86.7915C193.469 79.9237 197.504 75.0035 204.832 71.1083C209.823 68.4432 211.522 68.0332 218.531 68.1357C222.991 68.2382 228.088 68.9557 230.212 69.7758C246.991 76.6436 250.708 96.2219 237.434 108.112C235.522 109.855 230.743 113.443 226.814 116.108C208.336 128.613 201.54 140.606 201.54 160.492V169H217.469H233.398V164.08C233.398 157.622 235.735 150.344 239.133 146.039C240.619 144.091 245.611 139.991 250.177 136.916C268.973 124.206 278 109.445 278 91.0967C278 65.2656 258.035 43.0221 230.743 38.3069C220.549 36.5644 217.15 36.5644 207.168 38.3069Z" fill="#F9F8FE"/>
<path d="M208.821 182.434C204.301 184.397 198.241 191.63 197.419 195.97C196.289 201.963 197.522 209.506 200.193 213.433C207.589 224.282 222.381 226.245 231.934 217.566C242.721 207.75 240.872 190.494 228.339 183.364C223.614 180.678 213.855 180.161 208.821 182.434Z" fill="#F9F8FE"/>
</g>
<path d="M32.728 95V113H29.584V96.368L31.024 97.808H16.744L18.184 96.368V113H15.016V95H32.728ZM43.7305 113.336C42.0825 113.336 40.6345 113.04 39.3865 112.448C38.1545 111.84 37.1865 111 36.4825 109.928C35.7945 108.856 35.4505 107.616 35.4505 106.208C35.4505 104.784 35.7945 103.544 36.4825 102.488C37.1865 101.416 38.1545 100.584 39.3865 99.992C40.6345 99.384 42.0825 99.08 43.7305 99.08C45.3785 99.08 46.8185 99.384 48.0505 99.992C49.2985 100.584 50.2665 101.416 50.9545 102.488C51.6585 103.544 52.0105 104.784 52.0105 106.208C52.0105 107.616 51.6585 108.856 50.9545 109.928C50.2665 111 49.2985 111.84 48.0505 112.448C46.8185 113.04 45.3785 113.336 43.7305 113.336ZM43.7305 110.888C44.7865 110.888 45.6905 110.696 46.4425 110.312C47.2105 109.928 47.8025 109.392 48.2185 108.704C48.6345 108 48.8425 107.168 48.8425 106.208C48.8425 105.248 48.6345 104.424 48.2185 103.736C47.8025 103.032 47.2105 102.488 46.4425 102.104C45.6905 101.72 44.7865 101.528 43.7305 101.528C42.6905 101.528 41.7865 101.72 41.0185 102.104C40.2505 102.488 39.6585 103.032 39.2425 103.736C38.8265 104.424 38.6185 105.248 38.6185 106.208C38.6185 107.168 38.8265 108 39.2425 108.704C39.6585 109.392 40.2505 109.928 41.0185 110.312C41.7865 110.696 42.6905 110.888 43.7305 110.888ZM71.623 110.6V116.432H68.911V113H55.327V116.432H52.615V110.6H56.119L56.983 110.648H66.895L67.663 110.6H71.623ZM55.639 99.416H69.103V112.088H65.983V100.376L67.423 101.816H57.271L58.615 100.76C58.695 101.464 58.743 102.144 58.759 102.8C58.791 103.44 58.807 104.04 58.807 104.6C58.807 106.936 58.487 108.768 57.847 110.096C57.223 111.424 56.343 112.088 55.207 112.088L53.935 111.008C55.247 110.048 55.903 107.712 55.903 104C55.903 103.28 55.879 102.536 55.831 101.768C55.783 100.984 55.719 100.2 55.639 99.416ZM73.8826 113V99.416H77.0026V110.36L76.0666 110.024L84.7306 99.416H88.2826L76.7626 113H73.8826ZM85.0666 113L80.8426 106.28L83.0266 104.312L88.7146 113H85.0666ZM92.6414 99.416H106.009V113H102.889V100.376L104.329 101.816H94.2014L95.5454 100.712C95.6254 101.704 95.6894 102.648 95.7374 103.544C95.8014 104.424 95.8334 105.216 95.8334 105.92C95.8334 108.48 95.4734 110.344 94.7534 111.512C94.0334 112.68 92.8734 113.264 91.2734 113.264C90.8414 113.264 90.4254 113.216 90.0254 113.12C89.6254 113.024 89.2414 112.872 88.8734 112.664V110.336C89.1614 110.448 89.4414 110.536 89.7134 110.6C90.0014 110.664 90.2654 110.696 90.5054 110.696C91.3854 110.696 92.0174 110.288 92.4014 109.472C92.8014 108.656 93.0014 107.328 93.0014 105.488C93.0014 104.688 92.9694 103.776 92.9054 102.752C92.8574 101.728 92.7694 100.616 92.6414 99.416ZM123.288 113.336C121.672 113.336 120.248 113.04 119.016 112.448C117.784 111.84 116.824 111 116.136 109.928C115.464 108.856 115.128 107.616 115.128 106.208C115.128 104.784 115.464 103.544 116.136 102.488C116.824 101.416 117.784 100.584 119.016 99.992C120.248 99.384 121.672 99.08 123.288 99.08C124.92 99.08 126.344 99.384 127.56 99.992C128.792 100.584 129.752 101.416 130.44 102.488C131.128 103.544 131.472 104.784 131.472 106.208C131.472 107.616 131.128 108.856 130.44 109.928C129.752 111 128.792 111.84 127.56 112.448C126.344 113.04 124.92 113.336 123.288 113.336ZM109.32 113V99.416H112.44V113H109.32ZM111.048 107.312V104.912H117.048V107.312H111.048ZM123.288 110.888C124.328 110.888 125.216 110.696 125.952 110.312C126.704 109.928 127.28 109.384 127.68 108.68C128.096 107.976 128.304 107.152 128.304 106.208C128.304 105.248 128.096 104.424 127.68 103.736C127.28 103.032 126.704 102.488 125.952 102.104C125.216 101.72 124.328 101.528 123.288 101.528C122.264 101.528 121.376 101.72 120.624 102.104C119.872 102.488 119.288 103.032 118.872 103.736C118.472 104.424 118.272 105.248 118.272 106.208C118.272 107.152 118.472 107.976 118.872 108.68C119.288 109.384 119.872 109.928 120.624 110.312C121.376 110.696 122.264 110.888 123.288 110.888ZM138.826 108.8C136.97 108.8 135.554 108.296 134.578 107.288C133.602 106.264 133.114 104.776 133.114 102.824V99.416H136.21V102.704C136.21 105.104 137.338 106.304 139.594 106.304C140.522 106.304 141.394 106.088 142.21 105.656C143.042 105.224 143.802 104.576 144.49 103.712L144.682 105.92C144.122 106.832 143.322 107.544 142.282 108.056C141.258 108.552 140.106 108.8 138.826 108.8ZM144.106 113V99.416H147.226V113H144.106ZM150.547 113V99.416H153.619V111.44L152.683 111.224L161.971 99.416H166.003V113H162.931V100.808L163.891 101.048L154.483 113H150.547ZM173.616 100.496H176.736V113H173.616V100.496ZM167.976 99.416H182.376V101.864H167.976V99.416ZM184.344 113V99.416H187.464V112.136L186.36 110.696H192.168C193.016 110.696 193.68 110.488 194.16 110.072C194.64 109.64 194.88 109.056 194.88 108.32C194.88 107.568 194.64 106.984 194.16 106.568C193.68 106.136 193.016 105.92 192.168 105.92H186.456V103.688H192.576C193.68 103.688 194.64 103.888 195.456 104.288C196.272 104.672 196.904 105.216 197.352 105.92C197.816 106.608 198.048 107.416 198.048 108.344C198.048 109.272 197.816 110.088 197.352 110.792C196.904 111.496 196.272 112.04 195.456 112.424C194.64 112.808 193.688 113 192.6 113H184.344ZM215.234 107.648C215.074 108.768 214.634 109.76 213.914 110.624C213.194 111.472 212.274 112.136 211.154 112.616C210.034 113.096 208.786 113.336 207.41 113.336C205.842 113.336 204.458 113.04 203.258 112.448C202.074 111.84 201.146 111 200.474 109.928C199.802 108.856 199.466 107.616 199.466 106.208C199.466 104.8 199.802 103.56 200.474 102.488C201.146 101.416 202.074 100.584 203.258 99.992C204.458 99.384 205.842 99.08 207.41 99.08C208.786 99.08 210.034 99.32 211.154 99.8C212.274 100.28 213.194 100.952 213.914 101.816C214.634 102.664 215.074 103.656 215.234 104.792H212.09C211.866 103.768 211.33 102.968 210.482 102.392C209.634 101.816 208.61 101.528 207.41 101.528C206.45 101.528 205.61 101.72 204.89 102.104C204.17 102.472 203.61 103.008 203.21 103.712C202.826 104.4 202.634 105.232 202.634 106.208C202.634 107.168 202.826 108 203.21 108.704C203.61 109.408 204.17 109.952 204.89 110.336C205.61 110.704 206.45 110.888 207.41 110.888C208.626 110.888 209.658 110.592 210.506 110C211.354 109.408 211.882 108.624 212.09 107.648H215.234ZM228.905 105.824V108.008H222.041L221.993 107.936C221.001 107.936 220.129 107.76 219.377 107.408C218.625 107.056 218.041 106.56 217.625 105.92C217.209 105.28 217.001 104.536 217.001 103.688C217.001 102.84 217.209 102.096 217.625 101.456C218.041 100.816 218.625 100.32 219.377 99.968C220.129 99.6 221.001 99.416 221.993 99.416H231.113V113H227.993V100.304L229.025 101.648H222.665C221.881 101.648 221.265 101.832 220.817 102.2C220.385 102.568 220.169 103.072 220.169 103.712C220.169 104.352 220.385 104.864 220.817 105.248C221.265 105.632 221.881 105.824 222.665 105.824H228.905ZM225.377 106.64L220.337 113H216.713L221.897 106.64H225.377ZM14.656 143V129.416H17.776V140.36L16.84 140.024L25.504 129.416H29.056L17.536 143H14.656ZM25.84 143L21.616 136.28L23.8 134.312L29.488 143H25.84ZM37.3904 143V129.416H40.5104V140.36L39.5744 140.024L48.2384 129.416H51.7904L40.2704 143H37.3904ZM48.5744 143L44.3504 136.28L46.5344 134.312L52.2224 143H48.5744ZM60.6055 143.336C58.9575 143.336 57.5095 143.04 56.2615 142.448C55.0295 141.84 54.0615 141 53.3575 139.928C52.6695 138.856 52.3255 137.616 52.3255 136.208C52.3255 134.784 52.6695 133.544 53.3575 132.488C54.0615 131.416 55.0295 130.584 56.2615 129.992C57.5095 129.384 58.9575 129.08 60.6055 129.08C62.2535 129.08 63.6935 129.384 64.9255 129.992C66.1735 130.584 67.1415 131.416 67.8295 132.488C68.5335 133.544 68.8855 134.784 68.8855 136.208C68.8855 137.616 68.5335 138.856 67.8295 139.928C67.1415 141 66.1735 141.84 64.9255 142.448C63.6935 143.04 62.2535 143.336 60.6055 143.336ZM60.6055 140.888C61.6615 140.888 62.5655 140.696 63.3175 140.312C64.0855 139.928 64.6775 139.392 65.0935 138.704C65.5095 138 65.7175 137.168 65.7175 136.208C65.7175 135.248 65.5095 134.424 65.0935 133.736C64.6775 133.032 64.0855 132.488 63.3175 132.104C62.5655 131.72 61.6615 131.528 60.6055 131.528C59.5655 131.528 58.6615 131.72 57.8935 132.104C57.1255 132.488 56.5335 133.032 56.1175 133.736C55.7015 134.424 55.4935 135.248 55.4935 136.208C55.4935 137.168 55.7015 138 56.1175 138.704C56.5335 139.392 57.1255 139.928 57.8935 140.312C58.6615 140.696 59.5655 140.888 60.6055 140.888ZM71.4216 143V129.416H76.0536L81.7656 141.512H80.5416L86.2056 129.416H90.8376V143H87.9096V130.448H88.7256L82.6536 143H79.6056L73.5336 130.496L74.3496 130.472V143H71.4216ZM94.156 129.416H97.252V143H94.156V129.416ZM105.7 129.416H108.796V143H105.7V129.416ZM95.908 134.912H106.996V137.312H95.908V134.912ZM124.781 143L124.253 137.96L124.877 136.208L124.253 134.48L124.781 129.416H127.997L127.277 136.208L127.997 143H124.781ZM125.741 136.208C125.437 137.632 124.933 138.88 124.229 139.952C123.525 141.024 122.653 141.856 121.613 142.448C120.589 143.04 119.445 143.336 118.181 143.336C116.853 143.336 115.677 143.04 114.653 142.448C113.629 141.84 112.829 141 112.253 139.928C111.677 138.856 111.389 137.616 111.389 136.208C111.389 134.784 111.677 133.544 112.253 132.488C112.829 131.416 113.629 130.584 114.653 129.992C115.677 129.384 116.853 129.08 118.181 129.08C119.445 129.08 120.589 129.376 121.613 129.968C122.653 130.56 123.525 131.392 124.229 132.464C124.949 133.52 125.453 134.768 125.741 136.208ZM114.557 136.208C114.557 137.12 114.741 137.928 115.109 138.632C115.493 139.32 116.013 139.864 116.669 140.264C117.325 140.648 118.077 140.84 118.925 140.84C119.789 140.84 120.589 140.648 121.325 140.264C122.061 139.864 122.709 139.32 123.269 138.632C123.845 137.928 124.301 137.12 124.637 136.208C124.301 135.296 123.845 134.496 123.269 133.808C122.709 133.104 122.061 132.56 121.325 132.176C120.589 131.776 119.789 131.576 118.925 131.576C118.077 131.576 117.325 131.776 116.669 132.176C116.013 132.56 115.493 133.104 115.109 133.808C114.741 134.496 114.557 135.296 114.557 136.208ZM135.296 130.496H138.416V143H135.296V130.496ZM129.656 129.416H144.056V131.864H129.656V129.416ZM152.853 143.336C151.269 143.336 149.861 143.04 148.629 142.448C147.397 141.84 146.429 141 145.725 139.928C145.021 138.856 144.669 137.608 144.669 136.184C144.669 134.776 144.997 133.544 145.653 132.488C146.325 131.416 147.245 130.584 148.413 129.992C149.597 129.384 150.949 129.08 152.469 129.08C153.989 129.08 155.301 129.424 156.405 130.112C157.525 130.784 158.389 131.736 158.997 132.968C159.605 134.2 159.909 135.648 159.909 137.312H147.117V134.936H158.349L156.789 135.824C156.741 134.928 156.525 134.16 156.141 133.52C155.773 132.88 155.269 132.392 154.629 132.056C154.005 131.704 153.261 131.528 152.397 131.528C151.485 131.528 150.685 131.712 149.997 132.08C149.325 132.448 148.797 132.968 148.413 133.64C148.029 134.296 147.837 135.08 147.837 135.992C147.837 137 148.061 137.872 148.509 138.608C148.973 139.344 149.621 139.912 150.453 140.312C151.301 140.696 152.301 140.888 153.453 140.888C154.493 140.888 155.557 140.728 156.645 140.408C157.733 140.072 158.693 139.608 159.525 139.016V141.272C158.693 141.912 157.677 142.416 156.477 142.784C155.293 143.152 154.085 143.336 152.853 143.336Z" fill="#201F31"/>
<path d="M189 226C119.462 167.894 -12.2455 86.5456 17.2327 226H189Z" fill="#F9F8FE"/>
</g>
<defs>
<clipPath id="clip0_96_946">
<rect width="276" height="226" fill="white"/>
</clipPath>
<clipPath id="clip1_96_946">
<rect width="120" height="186" fill="white" transform="translate(158 37)"/>
</clipPath>
</defs>
</svg>
