<svg width="32" height="32" viewBox="0 0 32 32" fill="none" xmlns="http://www.w3.org/2000/svg">
<path d="M28.7463 3.32814C28.655 3.22779 28.5443 3.147 28.4208 3.09065C28.2974 3.0343 28.1638 3.00356 28.0282 3.00029C27.8925 2.99702 27.7576 3.02128 27.6316 3.07162C27.5056 3.12195 27.3911 3.19731 27.2951 3.29314L26.522 4.06252C26.4283 4.15628 26.3756 4.2834 26.3756 4.41596C26.3756 4.54851 26.4283 4.67563 26.522 4.76939L27.2307 5.47689C27.2772 5.52357 27.3324 5.56061 27.3932 5.58588C27.454 5.61115 27.5192 5.62416 27.5851 5.62416C27.6509 5.62416 27.7161 5.61115 27.777 5.58588C27.8378 5.56061 27.893 5.52357 27.9395 5.47689L28.6932 4.72689C29.0745 4.34627 29.1101 3.72627 28.7463 3.32814ZM24.9588 5.62502L13.6763 16.8875C13.6079 16.9556 13.5582 17.0402 13.532 17.1331L13.0101 18.6875C12.9976 18.7297 12.9967 18.7745 13.0075 18.8171C13.0183 18.8597 13.0405 18.8987 13.0716 18.9298C13.1027 18.9609 13.1416 18.983 13.1842 18.9938C13.2269 19.0047 13.2717 19.0038 13.3138 18.9913L14.867 18.4694C14.9599 18.4431 15.0444 18.3934 15.1126 18.325L26.3751 7.04127C26.4793 6.93596 26.5377 6.79379 26.5377 6.64564C26.5377 6.4975 26.4793 6.35533 26.3751 6.25002L25.7532 5.62502C25.6478 5.51987 25.5049 5.46083 25.356 5.46083C25.2071 5.46083 25.0643 5.51987 24.9588 5.62502Z" fill="#F9F8FE"/>
<path d="M24.1462 12.1038L16.5281 19.7369C16.2337 20.032 15.8718 20.251 15.4738 20.375L13.855 20.9169C13.4708 21.0254 13.0647 21.0295 12.6784 20.9287C12.2921 20.828 11.9397 20.6261 11.6574 20.3438C11.3752 20.0616 11.1732 19.7091 11.0725 19.3228C10.9718 18.9366 10.9759 18.5304 11.0844 18.1462L11.6263 16.5275C11.7499 16.1296 11.9685 15.7677 12.2631 15.4731L19.8962 7.85375C19.9662 7.78386 20.0139 7.69479 20.0332 7.59781C20.0526 7.50082 20.0427 7.40028 20.0049 7.30889C19.9671 7.21751 19.9031 7.13938 19.8209 7.0844C19.7387 7.02942 19.642 7.00005 19.5431 7H6.5C5.57174 7 4.6815 7.36875 4.02513 8.02513C3.36875 8.6815 3 9.57174 3 10.5V25.5C3 26.4283 3.36875 27.3185 4.02513 27.9749C4.6815 28.6313 5.57174 29 6.5 29H21.5C22.4283 29 23.3185 28.6313 23.9749 27.9749C24.6313 27.3185 25 26.4283 25 25.5V12.4569C25 12.358 24.9706 12.2613 24.9156 12.1791C24.8606 12.0969 24.7825 12.0329 24.6911 11.9951C24.5997 11.9573 24.4992 11.9474 24.4022 11.9668C24.3052 11.9861 24.2161 12.0338 24.1462 12.1038Z" fill="#F9F8FE"/>
</svg>
