<svg width="32" height="32" viewBox="0 0 32 32" fill="none" xmlns="http://www.w3.org/2000/svg">
<path d="M5.33334 25.3333V13.3333C5.33334 12.9111 5.42801 12.5111 5.61734 12.1333C5.80668 11.7555 6.06757 11.4444 6.40001 11.2L14.4 5.19996C14.8667 4.8444 15.4 4.66663 16 4.66663C16.6 4.66663 17.1333 4.8444 17.6 5.19996L25.6 11.2C25.9333 11.4444 26.1947 11.7555 26.384 12.1333C26.5733 12.5111 26.6676 12.9111 26.6667 13.3333V25.3333C26.6667 26.0666 26.4053 26.6946 25.8827 27.2173C25.36 27.74 24.7325 28.0008 24 28H20C19.6222 28 19.3058 27.872 19.0507 27.616C18.7956 27.36 18.6676 27.0435 18.6667 26.6666V20C18.6667 19.6222 18.5387 19.3057 18.2827 19.0506C18.0267 18.7955 17.7102 18.6675 17.3333 18.6666H14.6667C14.2889 18.6666 13.9725 18.7946 13.7173 19.0506C13.4622 19.3066 13.3342 19.6231 13.3333 20V26.6666C13.3333 27.0444 13.2053 27.3613 12.9493 27.6173C12.6933 27.8733 12.3769 28.0008 12 28H8.00001C7.26668 28 6.63912 27.7391 6.11734 27.2173C5.59557 26.6955 5.33423 26.0675 5.33334 25.3333Z" fill="#201F31"/>
</svg>
