<svg width="68" height="52" viewBox="0 0 68 52" fill="none" xmlns="http://www.w3.org/2000/svg">
<g clip-path="url(#clip0_96_936)">
<path d="M19.5322 0.139259C13.2548 0.993431 7.59949 4.51262 3.98284 9.83127C-0.76259 16.8127 -1.30394 25.7758 2.5546 33.3609C5.99849 40.1373 12.6905 44.841 20.0274 45.6382C21.5824 45.809 24.9917 45.7293 26.2702 45.4901L27.1341 45.3193L30.3015 48.4968C33.3192 51.5149 33.5035 51.6743 34.0909 51.8452C35.3694 52.1982 36.8322 51.9363 37.961 51.1732C38.2835 50.9568 39.85 49.5104 41.451 47.9502L44.365 45.1257L42.3263 42.5632C41.2091 41.1509 39.9767 39.6134 39.585 39.1465C39.1934 38.6795 38.8133 38.2012 38.7212 38.0987C38.5945 37.9279 38.6636 37.8026 39.2971 37.0965C40.852 35.3881 42.2918 33.042 43.2017 30.7756C43.3975 30.2745 43.5818 29.8531 43.5933 29.8303C43.6509 29.7734 47.3136 34.3745 50.5156 38.5201C51.9208 40.3423 57.1615 47.0732 57.8987 48.0185L58.44 48.7132H63.22H68L67.7696 48.4513C67.6429 48.3146 66.6639 47.1529 65.5927 45.866C64.5216 44.579 62.4253 42.0734 60.9395 40.2968C53.8559 31.8348 51.9554 29.5228 51.9554 29.4317C51.9554 29.4089 52.2549 29.3178 52.6234 29.2381C55.2841 28.6572 57.9678 27.1881 59.9028 25.2519C62.6556 22.5072 63.9802 19.2044 63.9687 15.1158C63.9572 12.5646 63.531 10.7766 62.3677 8.45321C60.306 4.29623 56.4359 1.46038 51.1837 0.287315L50.0549 0.0253677L35.3694 0.00259018C23.4944 -0.00879669 20.4651 0.0139809 19.5322 0.139259ZM24.842 6.97264C27.9403 7.47375 30.7738 8.95432 33.181 11.346C36.0145 14.1705 37.5463 17.4049 37.9034 21.3C38.2835 25.5367 36.694 29.705 33.4459 33.0078C32.7433 33.7253 32.3056 34.2492 32.3632 34.3176C32.4208 34.3745 33.5726 36.2879 34.9087 38.577C36.2563 40.8662 37.7652 43.4173 38.2605 44.2373C38.7673 45.0687 39.1704 45.7749 39.1704 45.809C39.1704 45.8432 38.894 45.866 38.5484 45.866H37.9264L35.4616 43.8957C29.1267 38.8731 24.4504 35.1717 24.0587 34.887L23.6211 34.5681V36.732V38.8959L23.1488 38.9756C22.0661 39.1579 19.0945 38.7365 17.4935 38.167C12.1837 36.2765 8.26754 31.7323 7.03511 26.0492C6.68957 24.4661 6.65502 21.6075 6.95449 20.0472C8.25602 13.191 13.6349 7.88376 20.2693 6.92709C21.3405 6.76764 23.7247 6.79042 24.842 6.97264ZM50.6884 7.13209C53.326 7.82681 55.3417 9.3871 56.3898 11.5282C56.9773 12.7241 57.1846 13.6921 57.1846 15.2866C57.1846 17.7238 56.5165 19.3866 54.8349 21.0494C54.0056 21.8808 53.6716 22.12 52.7617 22.5528C51.0109 23.3955 50.1355 23.5664 47.21 23.6233L44.699 23.6803V22.53C44.699 17.291 42.6373 11.813 39.1819 7.86098C38.7327 7.33709 38.3641 6.89292 38.3641 6.84736C38.3641 6.81319 40.9211 6.80181 44.0425 6.82458C49.4905 6.87014 49.7439 6.88153 50.6884 7.13209Z" fill="#F9F8FE"/>
<path d="M21.1214 12.5535C20.1194 12.7358 18.956 13.2483 18.1267 13.886C17.021 14.7288 16.088 16.4372 15.8577 18.043L15.7886 18.5327H17.5508H19.3016L19.4513 17.9405C19.6356 17.1774 20.0733 16.6308 20.868 16.198C21.4094 15.9019 21.5937 15.8563 22.3538 15.8677C22.8376 15.8791 23.3905 15.9588 23.6208 16.0499C25.4407 16.813 25.8438 18.9883 24.4041 20.3094C24.1967 20.503 23.6784 20.9016 23.2523 21.1978C21.2481 22.5872 20.511 23.9197 20.511 26.1292V27.0745H22.2387H23.9664V26.5278C23.9664 25.8103 24.2198 25.0017 24.5883 24.5233C24.7496 24.3069 25.2909 23.8514 25.7862 23.5097C27.8249 22.0975 28.8039 20.4575 28.8039 18.4188C28.8039 15.5488 26.6386 13.0774 23.6784 12.5535C22.5727 12.3599 22.2041 12.3599 21.1214 12.5535Z" fill="#F1CCBF"/>
<path d="M21.2596 28.9426C20.7528 29.159 20.0732 29.9562 19.9811 30.4345C19.8544 31.0951 19.9926 31.9265 20.292 32.3593C21.1213 33.5551 22.7799 33.7715 23.8511 32.8148C25.0605 31.7329 24.8532 29.8309 23.448 29.0451C22.9182 28.749 21.8239 28.692 21.2596 28.9426Z" fill="#F1CCBF"/>
</g>
<defs>
<clipPath id="clip0_96_936">
<rect width="68" height="52" fill="white"/>
</clipPath>
</defs>
</svg>
