<svg width="26" height="26" viewBox="0 0 26 26" fill="none" xmlns="http://www.w3.org/2000/svg">
<path d="M13 8C13.5304 8 14.0391 7.78929 14.4142 7.41421C14.7893 7.03914 15 6.53043 15 6C15 5.46957 14.7893 4.96086 14.4142 4.58579C14.0391 4.21071 13.5304 4 13 4C12.4696 4 11.9609 4.21071 11.5858 4.58579C11.2107 4.96086 11 5.46957 11 6C11 6.53043 11.2107 7.03914 11.5858 7.41421C11.9609 7.78929 12.4696 8 13 8ZM6 15C6.53043 15 7.03914 14.7893 7.41421 14.4142C7.78929 14.0391 8 13.5304 8 13C8 12.4696 7.78929 11.9609 7.41421 11.5858C7.03914 11.2107 6.53043 11 6 11C5.46957 11 4.96086 11.2107 4.58579 11.5858C4.21071 11.9609 4 12.4696 4 13C4 13.5304 4.21071 14.0391 4.58579 14.4142C4.96086 14.7893 5.46957 15 6 15ZM13 15C13.5304 15 14.0391 14.7893 14.4142 14.4142C14.7893 14.0391 15 13.5304 15 13C15 12.4696 14.7893 11.9609 14.4142 11.5858C14.0391 11.2107 13.5304 11 13 11C12.4696 11 11.9609 11.2107 11.5858 11.5858C11.2107 11.9609 11 12.4696 11 13C11 13.5304 11.2107 14.0391 11.5858 14.4142C11.9609 14.7893 12.4696 15 13 15ZM22 13C22 13.5304 21.7893 14.0391 21.4142 14.4142C21.0391 14.7893 20.5304 15 20 15C19.4696 15 18.9609 14.7893 18.5858 14.4142C18.2107 14.0391 18 13.5304 18 13C18 12.4696 18.2107 11.9609 18.5858 11.5858C18.9609 11.2107 19.4696 11 20 11C20.5304 11 21.0391 11.2107 21.4142 11.5858C21.7893 11.9609 22 12.4696 22 13ZM8 6C8 6.53043 7.78929 7.03914 7.41421 7.41421C7.03914 7.78929 6.53043 8 6 8C5.46957 8 4.96086 7.78929 4.58579 7.41421C4.21071 7.03914 4 6.53043 4 6C4 5.46957 4.21071 4.96086 4.58579 4.58579C4.96086 4.21071 5.46957 4 6 4C6.53043 4 7.03914 4.21071 7.41421 4.58579C7.78929 4.96086 8 5.46957 8 6ZM20 8C20.5304 8 21.0391 7.78929 21.4142 7.41421C21.7893 7.03914 22 6.53043 22 6C22 5.46957 21.7893 4.96086 21.4142 4.58579C21.0391 4.21071 20.5304 4 20 4C19.4696 4 18.9609 4.21071 18.5858 4.58579C18.2107 4.96086 18 5.46957 18 6C18 6.53043 18.2107 7.03914 18.5858 7.41421C18.9609 7.78929 19.4696 8 20 8ZM15 20C15 20.5304 14.7893 21.0391 14.4142 21.4142C14.0391 21.7893 13.5304 22 13 22C12.4696 22 11.9609 21.7893 11.5858 21.4142C11.2107 21.0391 11 20.5304 11 20C11 19.4696 11.2107 18.9609 11.5858 18.5858C11.9609 18.2107 12.4696 18 13 18C13.5304 18 14.0391 18.2107 14.4142 18.5858C14.7893 18.9609 15 19.4696 15 20ZM6 22C6.53043 22 7.03914 21.7893 7.41421 21.4142C7.78929 21.0391 8 20.5304 8 20C8 19.4696 7.78929 18.9609 7.41421 18.5858C7.03914 18.2107 6.53043 18 6 18C5.46957 18 4.96086 18.2107 4.58579 18.5858C4.21071 18.9609 4 19.4696 4 20C4 20.5304 4.21071 21.0391 4.58579 21.4142C4.96086 21.7893 5.46957 22 6 22ZM22 20C22 20.5304 21.7893 21.0391 21.4142 21.4142C21.0391 21.7893 20.5304 22 20 22C19.4696 22 18.9609 21.7893 18.5858 21.4142C18.2107 21.0391 18 20.5304 18 20C18 19.4696 18.2107 18.9609 18.5858 18.5858C18.9609 18.2107 19.4696 18 20 18C20.5304 18 21.0391 18.2107 21.4142 18.5858C21.7893 18.9609 22 19.4696 22 20Z" fill="black"/>
</svg>
