<svg width="160" height="160" viewBox="0 0 160 160" fill="none" xmlns="http://www.w3.org/2000/svg">
<g clip-path="url(#clip0_166_523)">
<g filter="url(#filter0_f_166_523)">
<path d="M40.5 169.5C72.1265 148.428 135.681 96.8517 136.886 59.1227C138.09 21.3936 174.536 36.0504 182.066 59.1227L228 169.5H40.5Z" fill="#F3F7D9"/>
</g>
<g filter="url(#filter1_f_166_523)">
<path d="M99 -27C67.3735 -5.92793 3.81928 45.6483 2.61446 83.3773C1.40964 121.106 -35.0361 106.45 -42.5663 83.3773L-88.5 -27H99Z" fill="#F3F7D9"/>
</g>
<path d="M69.1094 70.2747L80.0002 80.0111L90.8908 70.2747H69.1094Z" fill="#DAF276"/>
<path d="M96.2525 62.0203V45.4094H63.748V62.0203C63.748 64.2225 64.6866 66.3204 66.3283 67.7883L69.1096 70.2748H90.891L93.6723 67.7883C95.3143 66.3204 96.2525 64.2225 96.2525 62.0203Z" fill="#F1F9C6"/>
<path d="M69.4446 89.4479L66.3283 92.234C64.6865 93.7019 63.748 95.7996 63.748 98.002V114.613H96.2527V98.0018C96.2527 95.7996 95.3141 93.7017 93.6725 92.2339L90.5561 89.4478H69.4446V89.4479Z" fill="#DAF276"/>
<path d="M80.0001 80.0111L69.4443 89.448H90.5557L80.0001 80.0111Z" fill="#F1F9C6"/>
<path d="M97.4983 39.6733H62.5022C61.3182 39.6733 60.3584 40.633 60.3584 41.8171V43.2656C60.3584 44.4496 61.3182 45.4094 62.5022 45.4094H97.4983C98.6823 45.4094 99.6421 44.4496 99.6421 43.2656V41.8171C99.6421 40.633 98.6823 39.6733 97.4983 39.6733Z" fill="#E3E0FD"/>
<path d="M97.4983 114.59H62.5022C61.3182 114.59 60.3584 115.55 60.3584 116.734V118.183C60.3584 119.367 61.3182 120.327 62.5022 120.327H97.4983C98.6823 120.327 99.6421 119.367 99.6421 118.183V116.734C99.6421 115.55 98.6823 114.59 97.4983 114.59Z" fill="#E3E0FD"/>
<path d="M77.4892 80.0111L65.2126 90.9867C63.2183 92.7695 62.0743 95.3268 62.0743 98.002V112.942C60.17 113.155 58.6846 114.774 58.6846 116.734V118.183C58.6846 120.288 60.3969 122 62.5016 122H97.4977C99.6025 122 101.315 120.288 101.315 118.183V116.734C101.315 114.774 99.8294 113.155 97.9251 112.942V98.0021C97.9251 95.3269 96.7813 92.7697 94.7868 90.9868L82.5102 80.0112L94.7868 69.0356C96.7811 67.2528 97.9251 64.6955 97.9251 62.0203V47.0582C99.8294 46.8449 101.315 45.2258 101.315 43.2657V41.8172C101.315 39.7123 99.6025 38 97.4979 38H62.5018C60.3969 38 58.6847 39.7123 58.6847 41.8171V43.2656C58.6847 45.2256 60.1702 46.8448 62.0744 47.058V62.0202C62.0744 64.6954 63.2183 67.2526 65.2128 69.0355L77.4892 80.0111ZM62.5016 43.7361C62.2421 43.7361 62.0311 43.5251 62.0311 43.2656V41.8171C62.0311 41.5577 62.2421 41.3465 62.5016 41.3465H97.4977C97.7571 41.3465 97.9683 41.5577 97.9683 41.8171V43.2656C97.9683 43.5251 97.7571 43.7361 97.4977 43.7361H62.5016ZM65.4208 62.0205V47.0826H94.5788V62.0203C94.5788 63.7441 93.8418 65.3917 92.5565 66.5407L90.2516 68.6012H69.7479L67.443 66.5407C66.1579 65.3918 65.4208 63.7443 65.4208 62.0205ZM97.4979 116.264C97.7573 116.264 97.9684 116.475 97.9684 116.734V118.183C97.9684 118.442 97.7573 118.653 97.4979 118.653H62.5018C62.2423 118.653 62.0313 118.442 62.0313 118.183V116.734C62.0313 116.475 62.2423 116.264 62.5018 116.264H97.4979ZM94.5788 98.002V112.917H65.4208V98.002C65.4208 96.2782 66.1579 94.6307 67.443 93.4816L70.0831 91.1214H89.9164L92.5565 93.4816C93.8418 94.6307 94.5788 96.2782 94.5788 98.002ZM73.8265 87.7748L79.9999 82.2558L86.1734 87.7747H73.8265V87.7748ZM79.9999 77.7665L73.4913 71.9479H86.5084L79.9999 77.7665Z" fill="black"/>
<path d="M68.6215 97.4023C67.6973 97.4023 66.9482 98.1516 66.9482 99.0756V99.5776C66.9482 100.502 67.6973 101.251 68.6215 101.251C69.5457 101.251 70.2948 100.502 70.2948 99.5776V99.0756C70.2948 98.1516 69.5457 97.4023 68.6215 97.4023Z" fill="black"/>
<path d="M68.6215 102.924C67.6973 102.924 66.9482 103.673 66.9482 104.597V109.952C66.9482 110.876 67.6973 111.625 68.6215 111.625C69.5457 111.625 70.2948 110.876 70.2948 109.952V104.597C70.2948 103.673 69.5457 102.924 68.6215 102.924Z" fill="black"/>
</g>
<defs>
<filter id="filter0_f_166_523" x="-3" y="-7.5" width="274.5" height="220.5" filterUnits="userSpaceOnUse" color-interpolation-filters="sRGB">
<feFlood flood-opacity="0" result="BackgroundImageFix"/>
<feBlend mode="normal" in="SourceGraphic" in2="BackgroundImageFix" result="shape"/>
<feGaussianBlur stdDeviation="21.75" result="effect1_foregroundBlur_166_523"/>
</filter>
<filter id="filter1_f_166_523" x="-132" y="-70.5" width="274.5" height="220.5" filterUnits="userSpaceOnUse" color-interpolation-filters="sRGB">
<feFlood flood-opacity="0" result="BackgroundImageFix"/>
<feBlend mode="normal" in="SourceGraphic" in2="BackgroundImageFix" result="shape"/>
<feGaussianBlur stdDeviation="21.75" result="effect1_foregroundBlur_166_523"/>
</filter>
<clipPath id="clip0_166_523">
<rect width="160" height="160" rx="24" fill="white"/>
</clipPath>
</defs>
</svg>
