<svg width="28" height="28" viewBox="0 0 28 28" fill="none" xmlns="http://www.w3.org/2000/svg">
<path fill-rule="evenodd" clip-rule="evenodd" d="M12.4446 7.15631L11.8589 6.74215C11.0232 6.15069 10.0245 5.83314 9.0006 5.83331H8.2866C7.8141 5.83331 7.3381 5.86248 6.8936 6.01998C4.11344 7.00698 2.20127 10.6108 2.3401 18.7868C2.3681 20.4341 2.7531 22.2541 4.23944 22.9646C4.74646 23.2084 5.30202 23.3344 5.8646 23.3333C6.49694 23.3437 7.11813 23.1663 7.6496 22.8235C8.12794 22.5108 8.54794 22.1048 8.96794 21.6988C9.48594 21.1971 10.0039 20.6955 10.6293 20.3711C11.3105 20.0176 12.0668 19.8331 12.8343 19.8333H15.1664C15.9341 19.8333 16.6901 20.0176 17.3714 20.37C17.9968 20.6955 18.5148 21.1971 19.0339 21.6988C19.4539 22.1048 19.8739 22.5108 20.3499 22.8235C20.8049 23.1221 21.3941 23.3333 22.1361 23.3333C22.6987 23.3344 23.2542 23.2084 23.7613 22.9646C25.2476 22.2541 25.6326 20.433 25.6606 18.7868C25.7994 10.6108 23.8873 7.00698 21.1071 6.02115C20.6614 5.86248 20.1831 5.83331 19.7129 5.83331H18.9989C17.9749 5.83349 16.9762 6.15144 16.1406 6.74331L15.5549 7.15631C15.1 7.47772 14.5568 7.6503 13.9998 7.6503C13.4428 7.6503 12.8995 7.47772 12.4446 7.15631ZM19.5414 10.5C19.7735 10.5 19.9961 10.5922 20.1602 10.7563C20.3243 10.9204 20.4164 11.1429 20.4164 11.375C20.4164 11.607 20.3243 11.8296 20.1602 11.9937C19.9961 12.1578 19.7735 12.25 19.5414 12.25C19.3094 12.25 19.0868 12.1578 18.9227 11.9937C18.7586 11.8296 18.6664 11.607 18.6664 11.375C18.6664 11.1429 18.7586 10.9204 18.9227 10.7563C19.0868 10.5922 19.3094 10.5 19.5414 10.5ZM8.74977 10.7916C8.98183 10.7916 9.20439 10.8838 9.36849 11.0479C9.53258 11.212 9.62477 11.4346 9.62477 11.6666V12.5416H10.4998C10.7318 12.5416 10.9544 12.6338 11.1185 12.7979C11.2826 12.962 11.3748 13.1846 11.3748 13.4166C11.3748 13.6487 11.2826 13.8713 11.1185 14.0354C10.9544 14.1995 10.7318 14.2916 10.4998 14.2916H9.62477V15.1666C9.62477 15.3987 9.53258 15.6213 9.36849 15.7854C9.20439 15.9495 8.98183 16.0416 8.74977 16.0416C8.5177 16.0416 8.29515 15.9495 8.13105 15.7854C7.96696 15.6213 7.87477 15.3987 7.87477 15.1666V14.2916H6.99977C6.7677 14.2916 6.54515 14.1995 6.38105 14.0354C6.21696 13.8713 6.12477 13.6487 6.12477 13.4166C6.12477 13.1846 6.21696 12.962 6.38105 12.7979C6.54515 12.6338 6.7677 12.5416 6.99977 12.5416H7.87477V11.6666C7.87477 11.4346 7.96696 11.212 8.13105 11.0479C8.29515 10.8838 8.5177 10.7916 8.74977 10.7916ZM22.1664 13.125C22.1664 13.357 22.0743 13.5796 21.9102 13.7437C21.7461 13.9078 21.5235 14 21.2914 14C21.0594 14 20.8368 13.9078 20.6727 13.7437C20.5086 13.5796 20.4164 13.357 20.4164 13.125C20.4164 12.8929 20.5086 12.6704 20.6727 12.5063C20.8368 12.3422 21.0594 12.25 21.2914 12.25C21.5235 12.25 21.7461 12.3422 21.9102 12.5063C22.0743 12.6704 22.1664 12.8929 22.1664 13.125ZM17.7914 14C18.0235 14 18.2461 13.9078 18.4102 13.7437C18.5742 13.5796 18.6664 13.357 18.6664 13.125C18.6664 12.8929 18.5742 12.6704 18.4102 12.5063C18.2461 12.3422 18.0235 12.25 17.7914 12.25C17.5594 12.25 17.3368 12.3422 17.1727 12.5063C17.0086 12.6704 16.9164 12.8929 16.9164 13.125C16.9164 13.357 17.0086 13.5796 17.1727 13.7437C17.3368 13.9078 17.5594 14 17.7914 14ZM20.4164 14.875C20.4164 14.6429 20.3243 14.4204 20.1602 14.2563C19.9961 14.0922 19.7735 14 19.5414 14C19.3094 14 19.0868 14.0922 18.9227 14.2563C18.7586 14.4204 18.6664 14.6429 18.6664 14.875C18.6664 15.107 18.7586 15.3296 18.9227 15.4937C19.0868 15.6578 19.3094 15.75 19.5414 15.75C19.7735 15.75 19.9961 15.6578 20.1602 15.4937C20.3243 15.3296 20.4164 15.107 20.4164 14.875Z" fill="black"/>
</svg>
