<svg width="28" height="28" viewBox="0 0 28 28" fill="none" xmlns="http://www.w3.org/2000/svg">
<rect x="0.5" y="0.5" width="27" height="27" rx="13.5" stroke="#3C8AFF" stroke-opacity="0.2"/>
<path d="M21.2558 9.24399C21.412 9.40026 21.4998 9.61219 21.4998 9.83316C21.4998 10.0541 21.412 10.266 21.2558 10.4223L12.9224 18.7557C12.7662 18.9119 12.5542 18.9996 12.3333 18.9996C12.1123 18.9996 11.9004 18.9119 11.7441 18.7557L7.57743 14.589C7.42563 14.4318 7.34164 14.2213 7.34354 14.0028C7.34544 13.7843 7.43308 13.5753 7.58758 13.4208C7.74209 13.2663 7.9511 13.1787 8.1696 13.1768C8.3881 13.1749 8.5986 13.2589 8.75577 13.4107L12.3333 16.9882L20.0774 9.24399C20.2337 9.08776 20.4456 9 20.6666 9C20.8876 9 21.0995 9.08776 21.2558 9.24399Z" fill="#3C8AFF"/>
</svg>
