<svg width="21" height="21" viewBox="0 0 21 21" fill="none" xmlns="http://www.w3.org/2000/svg">
<path d="M10.5 0.499992C11.8135 0.498373 13.1143 0.756297 14.3278 1.25895C15.5412 1.7616 16.6434 2.49907 17.571 3.42899C18.5009 4.35658 19.2384 5.45877 19.7411 6.67224C20.2437 7.88571 20.5016 9.18654 20.5 10.5C20.5016 11.8134 20.2437 13.1143 19.7411 14.3277C19.2384 15.5412 18.5009 16.6434 17.571 17.571C16.6434 18.5009 15.5412 19.2384 14.3278 19.741C13.1143 20.2437 11.8135 20.5016 10.5 20.5C9.18655 20.5016 7.88572 20.2437 6.67225 19.741C5.45878 19.2384 4.35659 18.5009 3.42901 17.571C2.49909 16.6434 1.76162 15.5412 1.25897 14.3277C0.756313 13.1143 0.498388 11.8134 0.500008 10.5C0.498388 9.18654 0.756313 7.88571 1.25897 6.67224C1.76162 5.45877 2.49909 4.35658 3.42901 3.42899C4.35659 2.49907 5.45878 1.7616 6.67225 1.25895C7.88572 0.756297 9.18655 0.498373 10.5 0.499992Z" stroke="black" stroke-opacity="0.44" stroke-linejoin="round"/>
<path fill-rule="evenodd" clip-rule="evenodd" d="M10.5 4.5C10.7652 4.5 11.0196 4.60536 11.2071 4.79289C11.3946 4.98043 11.5 5.23478 11.5 5.5C11.5 5.76522 11.3946 6.01957 11.2071 6.20711C11.0196 6.39464 10.7652 6.5 10.5 6.5C10.2348 6.5 9.98043 6.39464 9.79289 6.20711C9.60536 6.01957 9.5 5.76522 9.5 5.5C9.5 5.23478 9.60536 4.98043 9.79289 4.79289C9.98043 4.60536 10.2348 4.5 10.5 4.5Z" fill="black" fill-opacity="0.44"/>
<path d="M10.5 16.5V8.5" stroke="black" stroke-opacity="0.44" stroke-linecap="round" stroke-linejoin="round"/>
</svg>
