<svg width="38" height="38" viewBox="0 0 38 38" fill="none" xmlns="http://www.w3.org/2000/svg">
<path d="M10.7017 7.94112L19.0193 16.2571L27.3369 7.94112C27.6333 7.65487 28.0302 7.49648 28.4422 7.50006C28.8542 7.50364 29.2484 7.66891 29.5397 7.96026C29.8311 8.25162 29.9964 8.64575 29.9999 9.05777C30.0035 9.4698 29.8451 9.86674 29.5589 10.1631L21.2429 18.4807L29.5589 26.7983C29.8451 27.0946 30.0035 27.4916 29.9999 27.9036C29.9964 28.3156 29.8311 28.7098 29.5397 29.0011C29.2484 29.2925 28.8542 29.4577 28.4422 29.4613C28.0302 29.4649 27.6333 29.3065 27.3369 29.0203L19.0193 20.7043L10.7017 29.0203C10.5568 29.1703 10.3834 29.2901 10.1917 29.3724C9.99994 29.4548 9.79374 29.4981 9.58508 29.4999C9.37643 29.5018 9.1695 29.462 8.97638 29.383C8.78326 29.304 8.60781 29.1873 8.46026 29.0397C8.31271 28.8922 8.19603 28.7167 8.11702 28.5236C8.03801 28.3305 7.99825 28.1236 8.00006 27.9149C8.00187 27.7063 8.04522 27.5001 8.12758 27.3083C8.20994 27.1166 8.32965 26.9432 8.47974 26.7983L16.7957 18.4807L8.47974 10.1631C8.19349 9.86674 8.0351 9.4698 8.03868 9.05777C8.04226 8.64575 8.20753 8.25162 8.49888 7.96026C8.79024 7.66891 9.18437 7.50364 9.59639 7.50006C10.0084 7.49648 10.4054 7.65487 10.7017 7.94112Z" fill="#BD4243"/>
</svg>
