<svg width="38" height="38" viewBox="0 0 38 38" fill="none" xmlns="http://www.w3.org/2000/svg">
<path d="M20.5833 30.0833C20.5833 31.1917 20.7892 32.2525 21.1375 33.25H7.91667C7.07681 33.25 6.27136 32.9164 5.67749 32.3225C5.08363 31.7286 4.75 30.9232 4.75 30.0833V7.91667C4.75 6.175 6.175 4.75 7.91667 4.75H30.0833C30.9232 4.75 31.7286 5.08363 32.3225 5.67749C32.9164 6.27136 33.25 7.07681 33.25 7.91667V21.1375C32.2525 20.7892 31.1917 20.5833 30.0833 20.5833V7.91667H7.91667V30.0833H20.5833ZM22.1033 19.4592L17.7492 25.0642L14.6458 21.3275L10.2917 26.9167H21.1375C21.7708 25.1433 22.9108 23.6075 24.3833 22.4992L22.1033 19.4592ZM31.6667 28.5V23.75H28.5V28.5H23.75V31.6667H28.5V36.4167H31.6667V31.6667H36.4167V28.5H31.6667Z" fill="#3C8AFF"/>
</svg>
