<svg width="28" height="28" viewBox="0 0 28 28" fill="none" xmlns="http://www.w3.org/2000/svg">
<path d="M15.1667 22.1667C15.1667 22.9833 15.3183 23.765 15.575 24.5H5.83333C5.21449 24.5 4.621 24.2542 4.18342 23.8166C3.74583 23.379 3.5 22.7855 3.5 22.1667V5.83333C3.5 4.55 4.55 3.5 5.83333 3.5H22.1667C22.7855 3.5 23.379 3.74583 23.8166 4.18342C24.2542 4.621 24.5 5.21449 24.5 5.83333V15.575C23.765 15.3183 22.9833 15.1667 22.1667 15.1667V5.83333H5.83333V22.1667H15.1667ZM16.2867 14.3383L13.0783 18.4683L10.7917 15.715L7.58333 19.8333H15.575C16.0417 18.5267 16.8817 17.395 17.9667 16.5783L16.2867 14.3383ZM23.3333 21V17.5H21V21H17.5V23.3333H21V26.8333H23.3333V23.3333H26.8333V21H23.3333Z" fill="#3C8AFF"/>
</svg>
