<svg width="28" height="28" viewBox="0 0 28 28" fill="none" xmlns="http://www.w3.org/2000/svg">
<rect x="0.5" y="0.5" width="27" height="27" rx="3.5" stroke="#3C8AFF" stroke-opacity="0.2"/>
<path d="M21.2558 9.24423C21.412 9.40051 21.4998 9.61243 21.4998 9.8334C21.4998 10.0544 21.412 10.2663 21.2558 10.4226L12.9224 18.7559C12.7662 18.9121 12.5542 18.9999 12.3333 18.9999C12.1123 18.9999 11.9004 18.9121 11.7441 18.7559L7.57743 14.5892C7.42563 14.4321 7.34164 14.2216 7.34354 14.0031C7.34544 13.7846 7.43308 13.5756 7.58758 13.4211C7.74209 13.2665 7.9511 13.1789 8.1696 13.177C8.3881 13.1751 8.5986 13.2591 8.75577 13.4109L12.3333 16.9884L20.0774 9.24423C20.2337 9.08801 20.4456 9.00024 20.6666 9.00024C20.8876 9.00024 21.0995 9.08801 21.2558 9.24423Z" fill="#3C8AFF"/>
</svg>
