<svg width="38" height="38" viewBox="0 0 38 38" fill="none" xmlns="http://www.w3.org/2000/svg">
<path d="M19 6C19.431 6 19.8443 6.17121 20.149 6.47595C20.4538 6.7807 20.625 7.19402 20.625 7.625V17.375H30.375C30.806 17.375 31.2193 17.5462 31.524 17.851C31.8288 18.1557 32 18.569 32 19C32 19.431 31.8288 19.8443 31.524 20.149C31.2193 20.4538 30.806 20.625 30.375 20.625H20.625V30.375C20.625 30.806 20.4538 31.2193 20.149 31.524C19.8443 31.8288 19.431 32 19 32C18.569 32 18.1557 31.8288 17.851 31.524C17.5462 31.2193 17.375 30.806 17.375 30.375V20.625H7.625C7.19402 20.625 6.7807 20.4538 6.47595 20.149C6.17121 19.8443 6 19.431 6 19C6 18.569 6.17121 18.1557 6.47595 17.851C6.7807 17.5462 7.19402 17.375 7.625 17.375H17.375V7.625C17.375 7.19402 17.5462 6.7807 17.851 6.47595C18.1557 6.17121 18.569 6 19 6Z" fill="#3C8AFF"/>
</svg>
