<svg width="28" height="28" viewBox="0 0 28 28" fill="none" xmlns="http://www.w3.org/2000/svg">
<path d="M14 1C14.431 1 14.8443 1.17121 15.149 1.47595C15.4538 1.7807 15.625 2.19402 15.625 2.625V12.375H25.375C25.806 12.375 26.2193 12.5462 26.524 12.851C26.8288 13.1557 27 13.569 27 14C27 14.431 26.8288 14.8443 26.524 15.149C26.2193 15.4538 25.806 15.625 25.375 15.625H15.625V25.375C15.625 25.806 15.4538 26.2193 15.149 26.524C14.8443 26.8288 14.431 27 14 27C13.569 27 13.1557 26.8288 12.851 26.524C12.5462 26.2193 12.375 25.806 12.375 25.375V15.625H2.625C2.19402 15.625 1.7807 15.4538 1.47595 15.149C1.17121 14.8443 1 14.431 1 14C1 13.569 1.17121 13.1557 1.47595 12.851C1.7807 12.5462 2.19402 12.375 2.625 12.375H12.375V2.625C12.375 2.19402 12.5462 1.7807 12.851 1.47595C13.1557 1.17121 13.569 1 14 1Z" fill="#3C8AFF"/>
</svg>
